# Blender v3.0.0 OBJ File: 'JTV Utility Car.blend'
# www.blender.org
mtllib JTV Utility Car Turret.mtl
o JTV-Turret_Cylinder.001
v 0.013727 -0.014365 -0.000000
v -0.398424 0.625635 -0.000000
v 0.013727 -0.014365 -0.320000
v 0.013727 0.625635 -0.320000
v 0.136186 -0.014365 -0.295642
v 0.136186 0.625635 -0.295642
v 0.240001 -0.014365 -0.226274
v 0.240001 0.625635 -0.226274
v 0.309369 -0.014365 -0.122459
v 0.309369 0.625635 -0.122459
v 0.333727 -0.014365 -0.000000
v 0.333727 0.625635 -0.000000
v 0.309369 -0.014365 0.122458
v 0.309369 0.625635 0.122458
v 0.240001 -0.014365 0.226274
v 0.240001 0.625635 0.226274
v 0.136186 -0.014365 0.295641
v 0.136186 0.625635 0.295641
v 0.013727 -0.014365 0.320000
v 0.013727 0.625635 0.320000
v -0.108731 -0.014365 0.295641
v -0.108731 0.625635 0.295641
v -0.212547 -0.014365 0.226274
v -0.212547 0.625635 0.226274
v -0.281914 -0.014365 0.122458
v -0.281914 0.625635 0.122458
v -0.306273 -0.014365 -0.000000
v -0.306273 0.625635 -0.000000
v -0.281914 -0.014365 -0.122459
v -0.281914 0.625635 -0.122459
v -0.212547 -0.014365 -0.226274
v -0.212547 0.625635 -0.226274
v -0.108731 -0.014365 -0.295642
v -0.108731 0.625635 -0.295642
v 0.013727 0.888125 -0.320000
v 0.136186 0.888125 -0.295642
v 0.240001 0.888125 -0.226274
v 0.309369 0.888125 -0.122459
v 0.333727 0.888125 -0.000000
v 0.309369 0.888125 0.122458
v 0.240001 0.888125 0.226274
v 0.136186 0.888125 0.295641
v 0.013727 0.888125 0.320000
v -0.108731 0.888125 0.295641
v -0.212547 0.888125 0.226274
v -0.281914 0.888125 0.122458
v -0.306273 0.888125 -0.000000
v -0.281914 0.888125 -0.122459
v -0.212547 0.888125 -0.226274
v -0.108731 0.888125 -0.295642
v -0.398424 0.888125 -0.000000
v -0.143996 0.625635 0.380778
v -0.143996 0.888125 0.380778
v 0.171451 0.625635 -0.380779
v 0.013727 0.625635 -0.412152
v 0.305162 0.625635 0.291435
v 0.305162 0.888125 0.291435
v 0.305162 0.625635 -0.291435
v 0.394506 0.625635 -0.157724
v 0.394506 0.888125 -0.157724
v 0.013727 0.888125 -0.412152
v 0.425879 0.625635 -0.000000
v -0.143996 0.625635 -0.380779
v -0.143996 0.888125 -0.380779
v 0.394506 0.625635 0.157723
v -0.277708 0.888125 -0.291435
v -0.277708 0.625635 -0.291435
v -0.367051 0.625635 -0.157724
v -0.367051 0.888125 -0.157724
v 0.171451 0.625635 0.380778
v -0.367051 0.888125 0.157723
v -0.367051 0.625635 0.157723
v 0.013727 0.625635 0.412151
v -0.277708 0.625635 0.291435
v -0.277708 0.888125 0.291435
v 0.013727 0.888125 0.412151
v 0.171451 0.888125 0.380778
v 0.394506 0.888125 0.157723
v 0.425879 0.888125 -0.000000
v 0.305162 0.888125 -0.291435
v 0.171451 0.888125 -0.380779
v 0.013727 1.622833 -0.320000
v 0.136186 1.622833 -0.295642
v 0.240001 1.622833 -0.226274
v 0.309369 1.622833 -0.122459
v 0.333727 1.622833 -0.000000
v 0.309369 1.622833 0.122458
v 0.240001 1.622833 0.226274
v 0.136186 1.622833 0.295641
v 0.013727 1.622833 0.320000
v -0.108731 1.622833 0.295641
v -0.212547 1.622833 0.226274
v -0.281914 1.622833 0.122458
v -0.306273 1.622833 -0.000000
v -0.281914 1.622833 -0.122459
v -0.212547 1.622833 -0.226274
v -0.108731 1.622833 -0.295642
v -0.152774 1.618150 0.241843
v -0.152774 2.088511 0.241843
v -0.152774 1.618150 0.206017
v -0.152774 2.088511 0.206017
v 0.180229 1.618150 0.241843
v 0.180229 1.951153 0.241843
v 0.180229 1.618150 0.206017
v 0.180229 1.951153 0.206017
v -0.152774 1.618150 -0.241843
v -0.152774 2.088511 -0.241843
v -0.152774 1.618150 -0.206018
v -0.152774 2.088511 -0.206018
v 0.180229 1.618150 -0.241843
v 0.180229 1.951153 -0.241843
v 0.180229 1.618150 -0.206018
v 0.180229 1.951153 -0.206018
vt 0.096354 0.578125
vt 0.096354 0.578125
vt 0.096354 0.578125
vt 0.096354 0.578125
vt 0.096354 0.578125
vt 0.096354 0.578125
vt 0.096354 0.578125
vt 0.096354 0.578125
vt 0.096354 0.578125
vt 0.096354 0.578125
vt 0.096354 0.578125
vt 0.096354 0.578125
vt 0.096354 0.578125
vt 0.096354 0.578125
vt 0.096354 0.578125
vt 0.096354 0.578125
vt 0.096354 0.578125
vt 0.096354 0.578125
vt 0.096354 0.578125
vt 0.096354 0.578125
vt 0.096354 0.578125
vt 0.096354 0.578125
vt 0.096354 0.578125
vt 0.096354 0.578125
vt 0.096354 0.578125
vt 0.096354 0.578125
vt 0.096354 0.578125
vt 0.096354 0.578125
vt 0.096354 0.578125
vt 0.096354 0.578125
vt 0.096354 0.578125
vt 0.096354 0.578125
vt 0.096354 0.578125
vt 0.096354 0.578125
vt 0.096354 0.578125
vt 0.096354 0.578125
vt 0.096354 0.578125
vt 0.096354 0.578125
vt 0.096354 0.578125
vt 0.096354 0.578125
vt 0.096354 0.578125
vt 0.096354 0.578125
vt 0.096354 0.578125
vt 0.096354 0.578125
vt 0.096354 0.578125
vt 0.096354 0.578125
vt 0.096354 0.578125
vt 0.096354 0.578125
vt 0.096354 0.578125
vt 0.096354 0.578125
vt 0.096354 0.578125
vt 0.096354 0.578125
vt 0.096354 0.578125
vt 0.096354 0.578125
vt 0.096354 0.578125
vt 0.096354 0.578125
vt 0.096354 0.578125
vt 0.096354 0.578125
vt 0.096354 0.578125
vt 0.096354 0.578125
vt 0.096354 0.578125
vt 0.096354 0.578125
vt 0.096354 0.578125
vt 0.096354 0.578125
vt 0.096354 0.578125
vt 0.096354 0.578125
vt 0.096354 0.578125
vt 0.096354 0.578125
vt 0.096354 0.578125
vt 0.096354 0.578125
vt 0.096354 0.578125
vt 0.096354 0.578125
vt 0.096354 0.578125
vt 0.096354 0.578125
vt 0.096354 0.578125
vt 0.096354 0.578125
vt 0.096354 0.578125
vt 0.096354 0.578125
vt 0.096354 0.578125
vt 0.096354 0.578125
vt 0.096354 0.578125
vt 0.096354 0.578125
vt 0.096354 0.578125
vt 0.096354 0.578125
vt 0.096354 0.578125
vt 0.096354 0.578125
vt 0.096354 0.578125
vt 0.096354 0.578125
vt 0.096354 0.578125
vt 0.096354 0.578125
vt 0.096354 0.578125
vt 0.096354 0.578125
vt 0.096354 0.578125
vt 0.096354 0.578125
vt 0.096354 0.578125
vt 0.096354 0.578125
vt 0.096354 0.578125
vt 0.096354 0.578125
vt 0.096354 0.578125
vt 0.096354 0.578125
vt 0.096354 0.578125
vt 0.096354 0.578125
vt 0.096354 0.578125
vt 0.096354 0.578125
vt 0.096354 0.578125
vt 0.096354 0.578125
vt 0.096354 0.578125
vt 0.096354 0.578125
vt 0.096354 0.578125
vt 0.096354 0.578125
vt 0.096354 0.578125
vt 0.096354 0.578125
vt 0.096354 0.578125
vn 0.0000 -1.0000 0.0000
vn 0.0000 1.0000 0.0000
vn 0.1951 0.0000 -0.9808
vn 0.5556 0.0000 -0.8315
vn 0.8315 0.0000 -0.5556
vn 0.9808 0.0000 -0.1951
vn 0.9808 0.0000 0.1951
vn 0.8315 0.0000 0.5556
vn 0.5556 0.0000 0.8315
vn 0.1951 0.0000 0.9808
vn -0.1951 0.0000 0.9808
vn -0.5556 0.0000 0.8315
vn -0.8315 0.0000 0.5556
vn -0.9808 0.0000 0.1951
vn -0.9808 0.0000 -0.1951
vn -0.8315 0.0000 -0.5556
vn -0.5556 0.0000 -0.8315
vn -0.1951 0.0000 -0.9808
vn -1.0000 0.0000 0.0000
vn -0.0000 0.0000 -1.0000
vn 1.0000 0.0000 0.0000
vn 0.0000 0.0000 1.0000
vn 0.3813 0.9244 0.0000
usemtl Material
s off
f 1/1/1 3/2/1 5/3/1
f 41/4/2 42/5/2 77/6/2 57/7/2
f 3/2/3 4/8/3 6/9/3 5/3/3
f 1/1/1 5/3/1 7/10/1
f 14/11/1 12/12/1 62/13/1 65/14/1
f 5/3/4 6/9/4 8/15/4 7/10/4
f 1/1/1 7/10/1 9/16/1
f 30/17/1 28/18/1 2/19/1 68/20/1
f 7/10/5 8/15/5 10/21/5 9/16/5
f 1/1/1 9/16/1 11/22/1
f 47/23/2 48/24/2 69/25/2 51/26/2
f 9/16/6 10/21/6 12/12/6 11/22/6
f 1/1/1 11/22/1 13/27/1
f 4/8/1 34/28/1 63/29/1 55/30/1
f 11/22/7 12/12/7 14/11/7 13/27/7
f 1/1/1 13/27/1 15/31/1
f 40/32/2 41/4/2 57/7/2 78/33/2
f 13/27/8 14/11/8 16/34/8 15/31/8
f 1/1/1 15/31/1 17/35/1
f 8/15/1 6/9/1 54/36/1 58/37/1
f 15/31/9 16/34/9 18/38/9 17/35/9
f 1/1/1 17/35/1 19/39/1
f 24/40/1 22/41/1 52/42/1 74/43/1
f 17/35/10 18/38/10 20/44/10 19/39/10
f 1/1/1 19/39/1 21/45/1
f 46/46/2 47/23/2 51/26/2 71/47/2
f 19/39/11 20/44/11 22/41/11 21/45/11
f 1/1/1 21/45/1 23/48/1
f 39/49/2 40/32/2 78/33/2 79/50/2
f 21/45/12 22/41/12 24/40/12 23/48/12
f 1/1/1 23/48/1 25/51/1
f 18/38/1 16/34/1 56/52/1 70/53/1
f 23/48/13 24/40/13 26/54/13 25/51/13
f 1/1/1 25/51/1 27/55/1
f 34/28/1 32/56/1 67/57/1 63/29/1
f 25/51/14 26/54/14 28/18/14 27/55/14
f 1/1/1 27/55/1 29/58/1
f 45/59/2 46/46/2 71/47/2 75/60/2
f 27/55/15 28/18/15 30/17/15 29/58/15
f 1/1/1 29/58/1 31/61/1
f 12/12/1 10/21/1 59/62/1 62/13/1
f 29/58/16 30/17/16 32/56/16 31/61/16
f 1/1/1 31/61/1 33/63/1
f 38/64/2 39/49/2 79/50/2 60/65/2
f 31/61/17 32/56/17 34/28/17 33/63/17
f 1/1/1 33/63/1 3/2/1
f 28/18/1 26/54/1 72/66/1 2/19/1
f 33/63/18 34/28/18 4/8/18 3/2/18
f 41/4/8 40/32/8 87/67/8 88/68/8
f 37/69/4 36/70/4 83/71/4 84/72/4
f 48/24/15 47/23/15 94/73/15 95/74/15
f 44/75/11 43/76/11 90/77/11 91/78/11
f 40/32/7 39/49/7 86/79/7 87/67/7
f 36/70/3 35/80/3 82/81/3 83/71/3
f 47/23/14 46/46/14 93/82/14 94/73/14
f 35/80/18 50/83/18 97/84/18 82/81/18
f 43/76/10 42/5/10 89/85/10 90/77/10
f 39/49/6 38/64/6 85/86/6 86/79/6
f 50/83/17 49/87/17 96/88/17 97/84/17
f 46/46/13 45/59/13 92/89/13 93/82/13
f 42/5/9 41/4/9 88/68/9 89/85/9
f 38/64/5 37/69/5 84/72/5 85/86/5
f 49/87/16 48/24/16 95/74/16 96/88/16
f 45/59/12 44/75/12 91/78/12 92/89/12
f 63/29/17 67/57/17 66/90/17 64/91/17
f 2/19/14 72/66/14 71/47/14 51/26/14
f 52/42/11 73/92/11 76/93/11 53/94/11
f 56/52/8 65/14/8 78/33/8 57/7/8
f 59/62/5 58/37/5 80/95/5 60/65/5
f 68/20/15 2/19/15 51/26/15 69/25/15
f 74/43/12 52/42/12 53/94/12 75/60/12
f 70/53/9 56/52/9 57/7/9 77/6/9
f 62/13/6 59/62/6 60/65/6 79/50/6
f 54/36/3 55/30/3 61/96/3 81/97/3
f 55/30/18 63/29/18 64/91/18 61/96/18
f 67/57/16 68/20/16 69/25/16 66/90/16
f 72/66/13 74/43/13 75/60/13 71/47/13
f 73/92/10 70/53/10 77/6/10 76/93/10
f 65/14/7 62/13/7 79/50/7 78/33/7
f 58/37/4 54/36/4 81/97/4 80/95/4
f 48/24/2 49/87/2 66/90/2 69/25/2
f 20/44/1 18/38/1 70/53/1 73/92/1
f 35/80/2 36/70/2 81/97/2 61/96/2
f 42/5/2 43/76/2 76/93/2 77/6/2
f 26/54/1 24/40/1 74/43/1 72/66/1
f 10/21/1 8/15/1 58/37/1 59/62/1
f 49/87/2 50/83/2 64/91/2 66/90/2
f 36/70/2 37/69/2 80/95/2 81/97/2
f 50/83/2 35/80/2 61/96/2 64/91/2
f 32/56/1 30/17/1 68/20/1 67/57/1
f 43/76/2 44/75/2 53/94/2 76/93/2
f 16/34/1 14/11/1 65/14/1 56/52/1
f 6/9/1 4/8/1 55/30/1 54/36/1
f 37/69/2 38/64/2 60/65/2 80/95/2
f 22/41/1 20/44/1 73/92/1 52/42/1
f 44/75/2 45/59/2 75/60/2 53/94/2
f 83/71/2 82/81/2 97/84/2 96/88/2 95/74/2 94/73/2 93/82/2 92/89/2 91/78/2 90/77/2 89/85/2 88/68/2 87/67/2 86/79/2 85/86/2 84/72/2
f 98/98/19 99/99/19 101/100/19 100/101/19
f 100/101/20 101/100/20 105/102/20 104/103/20
f 104/103/21 105/102/21 103/104/21 102/105/21
f 102/105/22 103/104/22 99/99/22 98/98/22
f 100/101/1 104/103/1 102/105/1 98/98/1
f 105/102/23 101/100/23 99/99/23 103/104/23
f 106/106/19 108/107/19 109/108/19 107/109/19
f 108/107/22 112/110/22 113/111/22 109/108/22
f 112/110/21 110/112/21 111/113/21 113/111/21
f 110/112/20 106/106/20 107/109/20 111/113/20
f 108/107/1 106/106/1 110/112/1 112/110/1
f 113/111/23 111/113/23 107/109/23 109/108/23
