# Blender v3.0.0 OBJ File: 'JTV Utility Car.blend'
# www.blender.org
mtllib JTV Utility Car Steering Wheel.mtl
o JTV-Steering-Wheel_Cylinder
v 2.387891 -0.220025 0.852428
v 1.734009 0.163963 1.017204
v 2.450637 -0.157279 0.870079
v 1.752167 0.182120 1.022312
v 2.503830 -0.104086 0.920343
v 1.767560 0.197513 1.036858
v 2.539373 -0.068543 0.995570
v 1.777846 0.207799 1.058627
v 2.551854 -0.056062 1.084306
v 1.781457 0.211411 1.084306
v 2.539373 -0.068543 1.173042
v 1.777846 0.207799 1.109985
v 2.503830 -0.104086 1.248269
v 1.767560 0.197513 1.131754
v 2.450637 -0.157279 1.298533
v 1.752167 0.182120 1.146300
v 2.387891 -0.220025 1.316184
v 1.734009 0.163963 1.151408
v 2.325146 -0.282770 1.298533
v 1.715852 0.145805 1.146300
v 2.271952 -0.335964 1.248269
v 1.700458 0.130412 1.131754
v 2.236410 -0.371506 1.173042
v 1.690173 0.120126 1.109985
v 2.223929 -0.383987 1.084306
v 1.686561 0.116515 1.084306
v 2.236410 -0.371506 0.995570
v 1.690173 0.120126 1.058627
v 2.271952 -0.335964 0.920343
v 1.700458 0.130412 1.036858
v 2.325146 -0.282770 0.870079
v 1.715852 0.145805 1.022312
v 1.796755 0.226708 0.870079
v 1.734009 0.163963 0.852428
v 1.849948 0.279902 0.920343
v 1.885491 0.315444 0.995570
v 1.897972 0.327925 1.084306
v 1.885491 0.315444 1.173042
v 1.849948 0.279902 1.248269
v 1.796755 0.226708 1.298533
v 1.734009 0.163963 1.316184
v 1.671264 0.101217 1.298533
v 1.618070 0.048024 1.248269
v 1.582528 0.012481 1.173042
v 1.570047 0.000000 1.084306
v 1.582528 0.012481 0.995570
v 1.618070 0.048024 0.920343
v 1.671264 0.101217 0.870079
v 1.656101 0.278186 1.022312
v 1.637944 0.260028 1.017204
v 1.671494 0.293579 1.036858
v 1.681780 0.303865 1.058627
v 1.685392 0.307476 1.084306
v 1.681780 0.303865 1.109985
v 1.671494 0.293579 1.131754
v 1.656101 0.278186 1.146300
v 1.637944 0.260028 1.151408
v 1.619786 0.241871 1.146300
v 1.604393 0.226478 1.131754
v 1.594107 0.216192 1.109985
v 1.590495 0.212580 1.084306
v 1.594107 0.216192 1.058627
v 1.604393 0.226478 1.036858
v 1.619786 0.241871 1.022312
v 1.613810 0.320477 1.022312
v 1.595653 0.302319 1.017204
v 1.629204 0.335870 1.036858
v 1.639489 0.346155 1.058627
v 1.643101 0.349767 1.084306
v 1.639489 0.346155 1.109985
v 1.629204 0.335870 1.131754
v 1.613810 0.320477 1.146300
v 1.595653 0.302319 1.151408
v 1.577495 0.284162 1.146300
v 1.562102 0.268768 1.131754
v 1.551816 0.258483 1.109985
v 1.548205 0.254871 1.084306
v 1.551816 0.258483 1.058627
v 1.562102 0.268768 1.036858
v 1.577495 0.284162 1.022312
v 1.795904 0.417989 0.544996
v 1.637944 0.260028 0.500561
v 1.929816 0.551901 0.671536
v 2.019293 0.641378 0.860916
v 2.050714 0.672799 1.084306
v 2.019293 0.641378 1.307696
v 1.929816 0.551901 1.497076
v 1.795904 0.417989 1.623616
v 1.637944 0.260028 1.668051
v 1.479983 0.102068 1.623616
v 1.346071 -0.031844 1.497076
v 1.256594 -0.121322 1.307696
v 1.225173 -0.152742 1.084306
v 1.256594 -0.121322 0.860916
v 1.346071 -0.031844 0.671536
v 1.479983 0.102068 0.544996
v 1.753613 0.460279 0.544996
v 1.595653 0.302319 0.500561
v 1.887525 0.594192 0.671536
v 1.977003 0.683669 0.860916
v 2.008423 0.715089 1.084306
v 1.977003 0.683669 1.307696
v 1.887525 0.594192 1.497076
v 1.753613 0.460279 1.623616
v 1.595653 0.302319 1.668051
v 1.437693 0.144359 1.623616
v 1.303780 0.010447 1.497076
v 1.214303 -0.079031 1.307696
v 1.182883 -0.110451 1.084306
v 1.214303 -0.079031 0.860916
v 1.303780 0.010446 0.671536
v 1.437692 0.144359 0.544996
vt 0.101563 0.575312
vt 0.101563 0.575312
vt 0.101563 0.575312
vt 0.101563 0.575312
vt 0.101563 0.575312
vt 0.101563 0.575312
vt 0.101563 0.575312
vt 0.101563 0.575312
vt 0.101563 0.575312
vt 0.101563 0.575312
vt 0.101563 0.575312
vt 0.101563 0.575312
vt 0.101563 0.575312
vt 0.101563 0.575312
vt 0.101563 0.575312
vt 0.101563 0.575312
vt 0.101563 0.575312
vt 0.101563 0.575312
vt 0.101563 0.575312
vt 0.101563 0.575312
vt 0.101563 0.575312
vt 0.101563 0.575312
vt 0.101563 0.575312
vt 0.101563 0.575312
vt 0.101563 0.575312
vt 0.101563 0.575312
vt 0.101563 0.575312
vt 0.101563 0.575312
vt 0.101563 0.575312
vt 0.101563 0.575312
vt 0.101563 0.575312
vt 0.101563 0.575312
vt 0.101563 0.575312
vt 0.101563 0.575312
vt 0.101563 0.575312
vt 0.101563 0.575312
vt 0.101563 0.575312
vt 0.101563 0.575312
vt 0.101563 0.575312
vt 0.101563 0.575312
vt 0.101563 0.575312
vt 0.101563 0.575312
vt 0.101563 0.575312
vt 0.101563 0.575312
vt 0.101563 0.575312
vt 0.101563 0.575312
vt 0.101563 0.575312
vt 0.101563 0.575312
vt 0.101563 0.575312
vt 0.101563 0.575312
vt 0.255208 0.559687
vt 0.255208 0.559687
vt 0.255208 0.559687
vt 0.255208 0.559687
vt 0.101563 0.575312
vt 0.101563 0.575312
vt 0.101563 0.575312
vt 0.101563 0.575312
vt 0.101563 0.575312
vt 0.101563 0.575312
vt 0.101563 0.575312
vt 0.101563 0.575312
vt 0.101563 0.575312
vt 0.101563 0.575312
vt 0.101563 0.575312
vt 0.101563 0.575312
vt 0.101563 0.575312
vt 0.101563 0.575312
vt 0.101563 0.575312
vt 0.101563 0.575312
vt 0.101563 0.575312
vt 0.101563 0.575312
vt 0.101563 0.575312
vt 0.101563 0.575312
vt 0.101563 0.575312
vt 0.101563 0.575312
vt 0.101563 0.575312
vt 0.101563 0.575312
vt 0.101563 0.575312
vt 0.101563 0.575312
vt 0.101563 0.575312
vt 0.101563 0.575312
vt 0.101563 0.575312
vt 0.101563 0.575312
vt 0.101563 0.575312
vt 0.101563 0.575312
vt 0.255208 0.559687
vt 0.255208 0.559687
vt 0.101563 0.575312
vt 0.255208 0.559687
vt 0.255208 0.559687
vt 0.101563 0.575312
vt 0.255208 0.559687
vt 0.255208 0.559687
vt 0.101563 0.575312
vt 0.255208 0.559687
vt 0.255208 0.559687
vt 0.255208 0.559687
vt 0.255208 0.559687
vt 0.255208 0.559687
vt 0.255208 0.559687
vt 0.101563 0.575312
vt 0.255208 0.559687
vt 0.255208 0.559687
vt 0.101563 0.575312
vt 0.255208 0.559687
vt 0.255208 0.559687
vt 0.101563 0.575312
vt 0.101563 0.575312
vt 0.101563 0.575312
vt 0.101563 0.575312
vt 0.101563 0.575312
vt 0.101563 0.575312
vt 0.101563 0.575312
vt 0.101563 0.575312
vt 0.101563 0.575312
vt 0.101563 0.575312
vt 0.101563 0.575312
vt 0.101563 0.575312
vt 0.101563 0.575312
vt 0.101563 0.575312
vt 0.101563 0.575312
vt 0.101563 0.575312
vt 0.101563 0.575312
vt 0.101563 0.575312
vt 0.101563 0.575312
vt 0.101563 0.575312
vt 0.101563 0.575312
vt 0.101563 0.575312
vt 0.101563 0.575312
vt 0.101563 0.575312
vt 0.101563 0.575312
vt 0.255208 0.559687
vt 0.255208 0.559687
vt 0.255208 0.559687
vt 0.255208 0.559687
vt 0.255208 0.559687
vt 0.255208 0.559687
vt 0.255208 0.559687
vt 0.255208 0.559687
vt 0.255208 0.559687
vt 0.255208 0.559687
vt 0.255208 0.559687
vt 0.255208 0.559687
vn 0.1019 0.1736 -0.9795
vn 0.2877 0.4899 -0.8229
vn 0.4252 0.7241 -0.5430
vn 0.4973 0.8468 -0.1890
vn 0.4973 0.8468 0.1890
vn 0.4252 0.7241 0.5430
vn 0.2877 0.4899 0.8229
vn 0.1019 0.1736 0.9795
vn -0.1019 -0.1736 0.9795
vn -0.2877 -0.4899 0.8229
vn -0.4252 -0.7241 0.5430
vn -0.4973 -0.8468 0.1890
vn -0.4973 -0.8468 -0.1890
vn -0.4252 -0.7241 -0.5430
vn 0.6935 0.6935 -0.1951
vn -0.2877 -0.4899 -0.8229
vn -0.1019 -0.1736 -0.9795
vn 0.7071 -0.7071 -0.0000
vn -0.7071 0.7071 0.0000
vn -0.6935 -0.6935 0.1951
vn 0.6935 0.6935 0.1951
vn -0.6935 -0.6935 -0.1951
vn 0.5879 0.5879 0.5556
vn -0.5879 -0.5879 -0.5556
vn 0.3928 0.3928 0.8315
vn -0.3928 -0.3928 -0.8315
vn 0.1380 0.1380 0.9808
vn 0.1380 0.1380 -0.9808
vn -0.1380 -0.1380 -0.9808
vn -0.1380 -0.1380 0.9808
vn 0.3928 0.3928 -0.8315
vn -0.3928 -0.3928 0.8315
vn 0.5879 0.5879 -0.5556
vn -0.5879 -0.5879 0.5556
vn 0.1379 0.1379 -0.9808
vn -0.1379 -0.1379 -0.9808
vn -0.1379 -0.1379 0.9808
vn 0.1379 0.1379 0.9808
usemtl Material
s off
f 1/1/1 34/2/1 33/3/1 3/4/1
f 3/4/2 33/3/2 35/5/2 5/6/2
f 5/6/3 35/5/3 36/7/3 7/8/3
f 7/8/4 36/7/4 37/9/4 9/10/4
f 9/10/5 37/9/5 38/11/5 11/12/5
f 11/12/6 38/11/6 39/13/6 13/14/6
f 13/14/7 39/13/7 40/15/7 15/16/7
f 15/16/8 40/15/8 41/17/8 17/18/8
f 17/18/9 41/17/9 42/19/9 19/20/9
f 19/20/10 42/19/10 43/21/10 21/22/10
f 21/22/11 43/21/11 44/23/11 23/24/11
f 23/24/12 44/23/12 45/25/12 25/26/12
f 25/26/13 45/25/13 46/27/13 27/28/13
f 27/28/14 46/27/14 47/29/14 29/30/14
f 10/31/15 8/32/15 52/33/15 53/34/15
f 29/30/16 47/29/16 48/35/16 31/36/16
f 31/36/17 48/35/17 34/2/17 1/1/17
f 1/1/18 3/4/18 5/6/18 7/8/18 9/10/18 11/12/18 13/14/18 15/16/18 17/18/18 19/20/18 21/22/18 23/24/18 25/26/18 27/28/18 29/30/18 31/36/18
f 2/37/19 4/38/19 33/3/19 34/2/19
f 4/38/19 6/39/19 35/5/19 33/3/19
f 6/39/19 8/32/19 36/7/19 35/5/19
f 8/32/19 10/31/19 37/9/19 36/7/19
f 10/31/19 12/40/19 38/11/19 37/9/19
f 12/40/19 14/41/19 39/13/19 38/11/19
f 14/41/19 16/42/19 40/15/19 39/13/19
f 16/42/19 18/43/19 41/17/19 40/15/19
f 18/43/19 20/44/19 42/19/19 41/17/19
f 20/44/19 22/45/19 43/21/19 42/19/19
f 22/45/19 24/46/19 44/23/19 43/21/19
f 24/46/19 26/47/19 45/25/19 44/23/19
f 26/47/19 28/48/19 46/27/19 45/25/19
f 28/48/19 30/49/19 47/29/19 46/27/19
f 30/49/19 32/50/19 48/35/19 47/29/19
f 32/50/19 2/37/19 34/2/19 48/35/19
f 70/51/19 71/52/19 103/53/19 102/54/19
f 26/47/20 24/46/20 60/55/20 61/56/20
f 12/40/21 10/31/21 53/34/21 54/57/21
f 28/48/22 26/47/22 61/56/22 62/58/22
f 14/41/23 12/40/23 54/57/23 55/59/23
f 30/49/24 28/48/24 62/58/24 63/60/24
f 16/42/25 14/41/25 55/59/25 56/61/25
f 32/50/26 30/49/26 63/60/26 64/62/26
f 18/43/27 16/42/27 56/61/27 57/63/27
f 4/38/28 2/37/28 50/64/28 49/65/28
f 2/37/29 32/50/29 64/62/29 50/64/29
f 20/44/30 18/43/30 57/63/30 58/66/30
f 6/39/31 4/38/31 49/65/31 51/67/31
f 22/45/32 20/44/32 58/66/32 59/68/32
f 8/32/33 6/39/33 51/67/33 52/33/33
f 24/46/34 22/45/34 59/68/34 60/55/34
f 65/69/19 66/70/19 80/71/19 79/72/19 78/73/19 77/74/19 76/75/19 75/76/19 74/77/19 73/78/19 72/79/19 71/80/19 70/81/19 69/82/19 68/83/19 67/84/19
f 60/55/18 59/68/18 91/85/18 92/86/18
f 69/87/19 70/51/19 102/54/19 101/88/19
f 59/68/18 58/66/18 90/89/18 91/85/18
f 68/90/19 69/87/19 101/88/19 100/91/19
f 58/66/18 57/63/18 89/92/18 90/89/18
f 67/93/19 68/90/19 100/91/19 99/94/19
f 57/63/18 56/61/18 88/95/18 89/92/18
f 80/96/19 66/97/19 98/98/19 112/99/19
f 65/100/19 67/93/19 99/94/19 97/101/19
f 56/61/18 55/59/18 87/102/18 88/95/18
f 79/103/19 80/96/19 112/99/19 111/104/19
f 66/97/19 65/100/19 97/101/19 98/98/19
f 55/59/18 54/57/18 86/105/18 87/102/18
f 78/106/19 79/103/19 111/104/19 110/107/19
f 54/57/18 53/34/18 85/108/18 86/105/18
f 81/109/35 82/110/35 98/111/35 97/112/35
f 82/110/36 96/113/36 112/114/36 98/111/36
f 90/89/37 89/92/37 105/115/37 106/116/37
f 83/117/31 81/109/31 97/112/31 99/118/31
f 91/85/32 90/89/32 106/116/32 107/119/32
f 84/120/33 83/117/33 99/118/33 100/121/33
f 92/86/34 91/85/34 107/119/34 108/122/34
f 85/108/15 84/120/15 100/121/15 101/123/15
f 93/124/20 92/86/20 108/122/20 109/125/20
f 86/105/21 85/108/21 101/123/21 102/126/21
f 94/127/22 93/124/22 109/125/22 110/128/22
f 87/102/23 86/105/23 102/126/23 103/129/23
f 95/130/24 94/127/24 110/128/24 111/131/24
f 88/95/25 87/102/25 103/129/25 104/132/25
f 96/113/26 95/130/26 111/131/26 112/114/26
f 89/92/38 88/95/38 104/132/38 105/115/38
f 61/56/18 60/55/18 92/86/18 93/124/18
f 71/52/19 72/133/19 104/134/19 103/53/19
f 62/58/18 61/56/18 93/124/18 94/127/18
f 72/133/19 73/135/19 105/136/19 104/134/19
f 63/60/18 62/58/18 94/127/18 95/130/18
f 73/135/19 74/137/19 106/138/19 105/136/19
f 49/65/18 50/64/18 82/110/18 81/109/18
f 64/62/18 63/60/18 95/130/18 96/113/18
f 74/137/19 75/139/19 107/140/19 106/138/19
f 51/67/18 49/65/18 81/109/18 83/117/18
f 50/64/18 64/62/18 96/113/18 82/110/18
f 75/139/19 76/141/19 108/142/19 107/140/19
f 52/33/18 51/67/18 83/117/18 84/120/18
f 76/141/19 77/143/19 109/144/19 108/142/19
f 53/34/18 52/33/18 84/120/18 85/108/18
f 77/143/19 78/106/19 110/107/19 109/144/19
