# Blender v3.0.0 OBJ File: 'BTR82A Vehicle.blend'
# www.blender.org
mtllib BTR82A Gun.mtl
o BTR82A_Gun_Cylinder.001
v 0.008315 0.371313 -0.378000
v 0.008315 0.371313 0.378000
v 0.152970 0.342539 -0.378000
v 0.152970 0.342539 0.378000
v 0.275602 0.260599 -0.378000
v 0.275602 0.260599 0.378000
v 0.357541 0.137967 -0.378000
v 0.357541 0.137967 0.378000
v 0.386315 -0.006687 -0.378000
v 0.386315 -0.006687 0.378000
v 0.357541 -0.151342 -0.378000
v 0.357541 -0.151342 0.378000
v 0.275602 -0.273974 -0.378000
v 0.275602 -0.273974 0.378000
v 0.152970 -0.355914 -0.378000
v 0.152970 -0.355914 0.378000
v 0.008315 -0.384688 -0.378000
v 0.008315 -0.384688 0.378000
v -0.136339 -0.355914 -0.378000
v -0.136339 -0.355914 0.378000
v -0.258971 -0.273974 -0.378000
v -0.258971 -0.273974 0.378000
v -0.340911 -0.151342 -0.378000
v -0.340911 -0.151342 0.378000
v -0.369685 -0.006687 -0.378000
v -0.369685 -0.006687 0.378000
v -0.340911 0.137967 -0.378000
v -0.340911 0.137967 0.378000
v -0.258971 0.260599 -0.378000
v -0.258971 0.260599 0.378000
v -0.136339 0.342539 -0.378000
v -0.136339 0.342539 0.378000
v -0.215605 0.116780 -0.196000
v -0.215605 0.209811 -0.102970
v -0.215605 -0.182189 -0.102970
v -0.215605 -0.089159 -0.196000
v -0.215605 0.209811 0.102970
v -0.215605 0.116780 0.196000
v -0.215605 -0.089159 0.196000
v -0.215605 -0.182189 0.102970
v -0.607605 0.134212 -0.071656
v -0.607605 0.085466 -0.120401
v -0.607605 -0.057845 -0.120401
v -0.607605 -0.106590 -0.071656
v -0.607605 0.085466 0.120401
v -0.607605 0.134212 0.071656
v -0.607605 -0.106590 0.071656
v -0.607605 -0.057845 0.120401
v -0.607605 0.209811 0.102970
v -0.607605 0.116780 0.196000
v -0.607605 -0.089159 0.196000
v -0.607605 -0.182189 0.102970
v -0.607605 0.116780 -0.196000
v -0.607605 0.209811 -0.102970
v -0.607605 -0.182189 -0.102970
v -0.607605 -0.089159 -0.196000
v -3.155456 0.105620 0.059812
v -3.155456 0.073623 0.091809
v -3.155456 -0.046002 0.091809
v -3.155456 -0.077999 0.059812
v -3.155456 0.073623 -0.091810
v -3.155456 0.105620 -0.059813
v -3.155456 -0.077999 -0.059813
v -3.155456 -0.046002 -0.091810
v -3.155456 0.134212 0.071655
v -3.155456 0.085466 0.120400
v -3.155456 -0.057845 0.120400
v -3.155456 -0.106590 0.071655
v -3.155456 0.085466 -0.120402
v -3.155456 0.134212 -0.071656
v -3.155456 -0.106590 -0.071656
v -3.155456 -0.057845 -0.120402
v -2.241398 0.105620 0.059811
v -2.241398 0.073623 0.091808
v -2.241398 -0.046002 0.091808
v -2.241398 -0.077999 0.059811
v -2.241398 0.073623 -0.091811
v -2.241398 0.105620 -0.059814
v -2.241398 -0.077999 -0.059814
v -2.241398 -0.046002 -0.091810
vt 0.094791 0.591869
vt 0.094791 0.591869
vt 0.094791 0.591869
vt 0.094791 0.591869
vt 0.094791 0.591869
vt 0.094791 0.591869
vt 0.094791 0.591869
vt 0.094791 0.591869
vt 0.094791 0.591869
vt 0.094791 0.591869
vt 0.094791 0.591869
vt 0.094791 0.591869
vt 0.094791 0.591869
vt 0.094791 0.591869
vt 0.094791 0.591869
vt 0.094791 0.591869
vt 0.094791 0.591869
vt 0.094791 0.591869
vt 0.094791 0.591869
vt 0.094791 0.591869
vt 0.094791 0.591869
vt 0.094791 0.591869
vt 0.094791 0.591869
vt 0.094791 0.591869
vt 0.094791 0.591869
vt 0.094791 0.591869
vt 0.094791 0.591869
vt 0.094791 0.591869
vt 0.094791 0.591869
vt 0.094791 0.591869
vt 0.094791 0.591869
vt 0.094791 0.591869
vt 0.094791 0.591869
vt 0.094791 0.591869
vt 0.094791 0.591869
vt 0.094791 0.591869
vt 0.094791 0.591869
vt 0.094791 0.591869
vt 0.094791 0.591869
vt 0.094791 0.591869
vt 0.094791 0.591869
vt 0.094791 0.591869
vt 0.094791 0.591869
vt 0.094791 0.591869
vt 0.094791 0.591869
vt 0.094791 0.591869
vt 0.094791 0.591869
vt 0.094791 0.591869
vt 0.094791 0.591869
vt 0.094791 0.591869
vt 0.094791 0.591869
vt 0.094791 0.591869
vt 0.094791 0.591869
vt 0.094791 0.591869
vt 0.094791 0.591869
vt 0.094791 0.591869
vt 0.094791 0.591869
vt 0.094791 0.591869
vt 0.094791 0.591869
vt 0.094791 0.591869
vt 0.094791 0.591869
vt 0.094791 0.591869
vt 0.094791 0.591869
vt 0.094791 0.591869
vt 0.094791 0.591869
vt 0.094791 0.591869
vt 0.094791 0.591869
vt 0.094791 0.591869
vt 0.094791 0.591869
vt 0.094791 0.591869
vt 0.094791 0.591869
vt 0.094791 0.591869
vt 0.094791 0.591869
vt 0.094791 0.591869
vt 0.094791 0.591869
vt 0.094791 0.591869
vt 0.094791 0.591869
vt 0.094791 0.591869
vt 0.094791 0.591869
vt 0.094791 0.591869
vn 0.1951 0.9808 0.0000
vn 0.5556 0.8315 0.0000
vn 0.8315 0.5556 0.0000
vn 0.9808 0.1951 0.0000
vn 0.9808 -0.1951 0.0000
vn 0.8315 -0.5556 0.0000
vn 0.5556 -0.8315 0.0000
vn 0.1951 -0.9808 0.0000
vn -0.1951 -0.9808 0.0000
vn -0.5556 -0.8315 0.0000
vn -0.8315 -0.5556 0.0000
vn -0.9808 -0.1951 0.0000
vn -0.9808 0.1951 0.0000
vn -0.8315 0.5556 0.0000
vn -0.0000 0.0000 1.0000
vn -0.5556 0.8315 0.0000
vn -0.1951 0.9808 0.0000
vn -0.0000 0.0000 -1.0000
vn 0.0000 -1.0000 0.0000
vn 0.0000 1.0000 0.0000
vn 0.0000 0.7071 0.7071
vn 0.0000 -0.7071 0.7071
vn 0.0000 0.7071 -0.7071
vn -0.0000 -0.7071 -0.7071
vn 1.0000 0.0000 0.0000
vn -1.0000 0.0000 0.0000
usemtl BTR
s off
f 1/1/1 2/2/1 4/3/1 3/4/1
f 3/4/2 4/3/2 6/5/2 5/6/2
f 5/6/3 6/5/3 8/7/3 7/8/3
f 7/8/4 8/7/4 10/9/4 9/10/4
f 9/10/5 10/9/5 12/11/5 11/12/5
f 11/12/6 12/11/6 14/13/6 13/14/6
f 13/14/7 14/13/7 16/15/7 15/16/7
f 15/16/8 16/15/8 18/17/8 17/18/8
f 17/18/9 18/17/9 20/19/9 19/20/9
f 19/20/10 20/19/10 22/21/10 21/22/10
f 21/22/11 22/21/11 24/23/11 23/24/11
f 23/24/12 24/23/12 26/25/12 25/26/12
f 25/26/13 26/25/13 28/27/13 27/28/13
f 27/28/14 28/27/14 30/29/14 29/30/14
f 4/3/15 2/2/15 32/31/15 30/29/15 28/27/15 26/25/15 24/23/15 22/21/15 20/19/15 18/17/15 16/15/15 14/13/15 12/11/15 10/9/15 8/7/15 6/5/15
f 29/30/16 30/29/16 32/31/16 31/32/16
f 31/32/17 32/31/17 2/2/17 1/1/17
f 1/1/18 3/4/18 5/6/18 7/8/18 9/10/18 11/12/18 13/14/18 15/16/18 17/18/18 19/20/18 21/22/18 23/24/18 25/26/18 27/28/18 29/30/18 31/32/18
f 55/33/19 35/34/19 40/35/19 52/36/19
f 39/37/15 38/38/15 50/39/15 51/40/15
f 48/41/15 45/42/15 66/43/15 67/44/15
f 56/45/18 53/46/18 33/47/18 36/48/18
f 34/49/20 54/50/20 49/51/20 37/52/20
f 37/52/21 49/51/21 50/39/21 38/38/21
f 52/36/22 40/35/22 39/37/22 51/40/22
f 54/50/23 34/49/23 33/47/23 53/46/23
f 35/34/24 55/33/24 56/45/24 36/48/24
f 35/34/25 36/48/25 33/47/25 34/49/25 37/52/25 38/38/25 39/37/25 40/35/25
f 46/53/26 45/42/26 50/39/26 49/51/26
f 48/41/26 47/54/26 52/36/26 51/40/26
f 42/55/26 41/56/26 54/50/26 53/46/26
f 44/57/26 43/58/26 56/45/26 55/33/26
f 43/58/26 42/55/26 53/46/26 56/45/26
f 41/56/26 46/53/26 49/51/26 54/50/26
f 47/54/26 44/57/26 55/33/26 52/36/26
f 45/42/26 48/41/26 51/40/26 50/39/26
f 63/59/20 60/60/20 76/61/20 79/62/20
f 46/53/20 41/56/20 70/63/20 65/64/20
f 43/58/24 44/57/24 71/65/24 72/66/24
f 47/54/22 48/41/22 67/44/22 68/67/22
f 44/57/19 47/54/19 68/67/19 71/65/19
f 42/55/18 43/58/18 72/66/18 69/68/18
f 41/56/23 42/55/23 69/68/23 70/63/23
f 45/42/21 46/53/21 65/64/21 66/43/21
f 57/69/26 58/70/26 66/43/26 65/64/26
f 59/71/26 60/60/26 68/67/26 67/44/26
f 61/72/26 62/73/26 70/63/26 69/68/26
f 63/59/26 64/74/26 72/66/26 71/65/26
f 64/74/26 61/72/26 69/68/26 72/66/26
f 62/73/26 57/69/26 65/64/26 70/63/26
f 60/60/26 63/59/26 71/65/26 68/67/26
f 58/70/26 59/71/26 67/44/26 66/43/26
f 76/61/26 75/75/26 74/76/26 73/77/26 78/78/26 77/79/26 80/80/26 79/62/26
f 61/72/15 64/74/15 80/80/15 77/79/15
f 62/73/22 61/72/22 77/79/22 78/78/22
f 58/70/24 57/69/24 73/77/24 74/76/24
f 59/71/18 58/70/18 74/76/18 75/75/18
f 57/69/19 62/73/19 78/78/19 73/77/19
f 64/74/21 63/59/21 79/62/21 80/80/21
f 60/60/23 59/71/23 75/75/23 76/61/23
