# Blender v3.0.0 OBJ File: 'M4A1 Remastered.blend'
# www.blender.org
mtllib M4A1 Remastered Magazine.mtl
o Magazine_Cube.002
v -0.179251 0.025673 -0.304247
v -0.454066 0.025673 -0.304247
v -0.179251 -0.025673 -0.304247
v -0.454066 -0.025673 -0.304247
v -0.179251 0.025673 0.592382
v -0.454066 0.025673 0.592382
v -0.179251 -0.025673 0.592382
v -0.454066 -0.025673 0.592382
vt 0.229634 0.616644
vt 0.229634 0.546353
vt 0.229634 0.546353
vt 0.229634 0.616644
vt 0.229634 0.616644
vt 0.229634 0.616644
vt 0.229634 0.546353
vt 0.229634 0.546353
vn -0.0000 0.0000 -1.0000
vn 0.0000 0.0000 1.0000
vn -1.0000 0.0000 0.0000
vn 1.0000 0.0000 0.0000
vn 0.0000 -1.0000 0.0000
vn 0.0000 1.0000 0.0000
usemtl M4A1
s off
f 2/1/1 1/2/1 3/3/1 4/4/1
f 6/5/2 8/6/2 7/7/2 5/8/2
f 2/1/3 4/4/3 8/6/3 6/5/3
f 3/3/4 1/2/4 5/8/4 7/7/4
f 4/4/5 3/3/5 7/7/5 8/6/5
f 1/2/6 2/1/6 6/5/6 5/8/6
