# Blender v3.0.0 OBJ File: 'MP5 SMG.blend'
# www.blender.org
mtllib MP5 SMG Magazine.mtl
o MP5_Magazine_Cube.002
v 0.663125 0.601261 0.092372
v 0.484499 0.600319 0.092372
v 0.484499 0.600319 -0.092372
v 0.663125 0.601261 -0.092372
v 0.990167 -0.727810 0.092372
v 0.811541 -0.728751 0.092372
v 0.811541 -0.728751 -0.092372
v 0.990167 -0.727810 -0.092372
v 0.697453 0.161168 0.092372
v 0.804730 -0.281788 0.092372
v 0.804730 -0.281787 -0.092372
v 0.697453 0.161168 -0.092372
v 0.518827 0.160226 -0.092372
v 0.626104 -0.282729 -0.092372
v 0.626104 -0.282729 0.092372
v 0.518827 0.160226 0.092372
vt 0.257203 0.582004
vt 0.257203 0.582004
vt 0.257203 0.582004
vt 0.257203 0.582004
vt 0.257203 0.582004
vt 0.257203 0.582004
vt 0.257203 0.582004
vt 0.257203 0.582004
vt 0.257203 0.582004
vt 0.257203 0.582004
vt 0.257203 0.582004
vt 0.257203 0.582004
vt 0.257203 0.582004
vt 0.257203 0.582004
vt 0.257203 0.582004
vt 0.257203 0.582004
vn -0.0053 1.0000 0.0000
vn 0.0053 -1.0000 0.0000
vn 0.9234 0.3839 -0.0000
vn -0.9234 -0.3839 -0.0000
vn -0.0000 -0.0000 -1.0000
vn -0.0000 0.0000 1.0000
vn -0.9970 -0.0778 0.0000
vn -0.9719 -0.2354 -0.0000
vn 0.9970 0.0778 0.0000
vn 0.9719 0.2354 -0.0000
usemtl MP5
s off
f 4/1/1 3/2/1 2/3/1 1/4/1
f 8/5/2 5/6/2 6/7/2 7/8/2
f 11/9/3 10/10/3 5/6/3 8/5/3
f 15/11/4 14/12/4 7/8/4 6/7/4
f 14/12/5 11/9/5 8/5/5 7/8/5
f 10/10/6 15/11/6 6/7/6 5/6/6
f 1/4/6 2/3/6 16/13/6 9/14/6
f 9/14/6 16/13/6 15/11/6 10/10/6
f 3/2/5 4/1/5 12/15/5 13/16/5
f 13/16/5 12/15/5 11/9/5 14/12/5
f 2/3/7 3/2/7 13/16/7 16/13/7
f 16/13/8 13/16/8 14/12/8 15/11/8
f 4/1/9 1/4/9 9/14/9 12/15/9
f 12/15/10 9/14/10 10/10/10 11/9/10
