# Blender v3.2.0 OBJ File: 'Props.blend'
# www.blender.org
mtllib DesertHesco.mtl
o DesertHesco_Cube.001
v -1.000000 -1.477884 1.000000
v -1.000000 1.522116 1.000000
v -1.000000 -1.477884 -1.000000
v -1.000000 1.522116 -1.000000
v 1.000000 -1.477884 1.000000
v 1.000000 1.522116 1.000000
v 1.000000 -1.477884 -1.000000
v 1.000000 1.522116 -1.000000
v 0.000000 1.522116 -1.226315
v 0.000000 1.522116 1.226315
v -1.226315 -1.477884 0.000000
v -1.226315 1.522116 0.000000
v 1.226315 -1.477884 0.000000
v 1.226315 1.522116 0.000000
v -1.325223 1.509818 0.000000
v -1.059642 1.689210 0.000000
v -0.864086 1.689210 -0.864086
v 0.000000 1.689210 -1.059642
v 0.864086 1.689210 -0.864086
v 1.059642 1.689210 0.000000
v 0.864086 1.689210 0.864086
v 0.000000 1.689210 1.059642
v -0.864086 1.689210 0.864086
v -1.125264 1.524280 -1.125264
v 0.000000 1.509818 -1.325223
v 1.125264 1.524280 -1.125264
v 1.325223 1.509818 0.000000
v 1.125264 1.524280 1.125264
v 0.000000 1.509818 1.325223
v -1.125264 1.524280 1.125264
v 1.125264 1.687046 1.125264
v 1.325223 1.701508 0.000000
v -1.325223 1.701508 0.000000
v -1.125264 1.687046 1.125264
v -1.125264 1.687046 -1.125264
v 0.000000 1.701508 -1.325223
v 1.125264 1.687046 -1.125264
v 0.000000 1.701508 1.325223
v -1.059642 1.342205 0.000000
v -0.864086 1.342205 -0.864086
v 0.000000 1.342205 -1.059642
v 0.864086 1.342205 -0.864086
v 1.059642 1.342205 0.000000
v 0.864086 1.342205 0.864086
v 0.000000 1.342205 1.059642
v -0.864086 1.342205 0.864086
v 0.000000 1.342205 0.000000
v -0.500000 -1.477884 -1.113157
v -0.500000 1.522116 1.113157
v -0.500000 1.522116 -1.113157
v -0.500000 -1.477884 1.113157
v -0.613157 -1.477884 0.000000
v -0.432043 1.689210 0.961864
v -0.432043 1.689210 -0.961864
v -0.562632 1.517049 1.225244
v -0.562632 1.517049 -1.225244
v -0.562632 1.694277 1.225244
v -0.562632 1.694277 -1.225244
v -0.432043 1.342205 0.961864
v -0.432043 1.342205 -0.961864
v -0.529821 1.342205 0.000000
v 0.500000 1.522116 -1.113157
v 0.500000 -1.477884 1.113157
v 0.500000 -1.477884 -1.113157
v 0.500000 1.522116 1.113157
v 0.613157 -1.477884 0.000000
v 0.432043 1.689210 -0.961864
v 0.432043 1.689210 0.961864
v 0.562632 1.517049 -1.225244
v 0.562632 1.517049 1.225244
v 0.562632 1.694277 -1.225244
v 0.562632 1.694277 1.225244
v 0.432043 1.342205 -0.961864
v 0.432043 1.342205 0.961864
v 0.529821 1.342205 0.000000
v -1.000000 -0.212483 1.000000
v -1.000000 0.256715 1.000000
v -1.000000 -0.212483 -1.000000
v -1.000000 0.256715 -1.000000
v 1.000000 -0.212483 -1.000000
v 1.000000 0.256715 -1.000000
v 1.000000 -0.212483 1.000000
v 1.000000 0.256715 1.000000
v 1.226315 0.256715 0.000000
v 1.226315 -0.212483 0.000000
v -1.226315 0.256715 0.000000
v -1.226315 -0.212483 0.000000
v -0.500000 0.256715 -1.113157
v -0.500000 -0.212483 -1.113157
v -0.500000 0.256715 1.113157
v -0.500000 -0.212483 1.113157
v 0.500000 0.256715 1.113157
v 0.500000 -0.212483 1.113157
v 0.500000 0.256715 -1.113157
v 0.500000 -0.212483 -1.113157
v -1.000000 0.537517 1.000000
v -1.000000 1.006715 1.000000
v -1.000000 0.537517 -1.000000
v -1.000000 1.006715 -1.000000
v 1.000000 0.537517 -1.000000
v 1.000000 1.006715 -1.000000
v 1.000000 0.537517 1.000000
v 1.000000 1.006715 1.000000
v 1.226315 1.006715 0.000000
v 1.226315 0.537517 0.000000
v -1.226315 1.006715 0.000000
v -1.226315 0.537517 0.000000
v -0.500000 1.006715 -1.113157
v -0.500000 0.537517 -1.113157
v -0.500000 1.006715 1.113157
v -0.500000 0.537517 1.113157
v 0.500000 1.006715 1.113157
v 0.500000 0.537517 1.113157
v 0.500000 1.006715 -1.113157
v 0.500000 0.537517 -1.113157
v -1.000000 -0.493285 -1.000000
v -1.000000 -0.962483 -1.000000
v 1.000000 -0.493285 -1.000000
v 1.000000 -0.962483 -1.000000
v 1.000000 -0.493285 1.000000
v 1.000000 -0.962483 1.000000
v 1.226315 -0.962483 0.000000
v 1.226315 -0.493285 0.000000
v -1.226315 -0.962483 0.000000
v -1.226315 -0.493285 0.000000
v -0.500000 -0.962483 -1.113157
v -0.500000 -0.493285 -1.113157
v -0.500000 -0.962483 1.113157
v -0.500000 -0.493285 1.113157
v 0.500000 -0.962483 1.113157
v 0.500000 -0.493285 1.113157
v 0.500000 -0.962483 -1.113157
v 0.500000 -0.493285 -1.113157
v -1.000000 -0.493285 1.000000
v -1.000000 -0.962483 1.000000
v 0.490499 -1.477884 -1.071177
v 0.000000 -1.477884 -1.183272
v -0.490499 1.522116 -1.071177
v 0.000000 1.522116 -1.183272
v -0.490499 -1.477884 1.071177
v 0.000000 -1.477884 1.183272
v 0.490499 1.522116 1.071177
v 0.000000 1.522116 1.183272
v -0.490499 -1.477884 -1.071177
v -0.490499 1.522116 1.071177
v 0.490499 1.522116 -1.071177
v 0.490499 -1.477884 1.071177
v 0.000000 -0.212483 -1.183272
v 0.000000 0.256715 -1.183272
v 0.490499 0.256715 -1.071177
v 0.490499 -0.212483 -1.071177
v 0.969564 -0.212483 0.969564
v 0.969564 0.256715 0.969564
v 0.490499 0.256715 1.071177
v 0.490499 -0.212483 1.071177
v 0.000000 -0.212483 1.183272
v 0.000000 0.256715 1.183272
v -0.490499 0.256715 1.071177
v -0.490499 -0.212483 1.071177
v -0.969564 -0.212483 -0.969564
v -0.969564 0.256715 -0.969564
v -0.490499 0.256715 -1.071177
v -0.490499 -0.212483 -1.071177
v -0.969564 -0.212483 0.969564
v -0.969564 0.256715 0.969564
v -1.183272 0.256715 0.000000
v -1.183272 -0.212483 0.000000
v 0.969564 -0.212483 -0.969564
v 0.969564 0.256715 -0.969564
v 1.183272 0.256715 0.000000
v 1.183272 -0.212483 0.000000
v 0.000000 0.537517 -1.183272
v 0.000000 1.006715 -1.183272
v 0.490499 1.006715 -1.071177
v 0.490499 0.537517 -1.071177
v 0.969564 0.537517 0.969564
v 0.969564 1.006715 0.969564
v 0.490499 1.006715 1.071177
v 0.490499 0.537517 1.071177
v 0.000000 0.537517 1.183272
v 0.000000 1.006715 1.183272
v -0.490499 1.006715 1.071177
v -0.490499 0.537517 1.071177
v -0.969564 0.537517 -0.969564
v -0.969564 1.006715 -0.969564
v -0.490499 1.006715 -1.071177
v -0.490499 0.537517 -1.071177
v -0.969564 0.537517 0.969564
v -0.969564 1.006715 0.969564
v -1.183272 1.006715 0.000000
v -1.183272 0.537517 0.000000
v 0.969564 0.537517 -0.969564
v 0.969564 1.006715 -0.969564
v 1.183272 1.006715 0.000000
v 1.183272 0.537517 0.000000
v -1.183272 -0.962483 0.000000
v -1.183272 -0.493285 0.000000
v -0.969564 -0.493285 -0.969564
v -0.969564 -0.962483 -0.969564
v 0.490499 -0.962483 -1.071177
v 0.490499 -0.493285 -1.071177
v 0.969564 -0.493285 -0.969564
v 0.969564 -0.962483 -0.969564
v 1.183272 -0.962483 0.000000
v 1.183272 -0.493285 0.000000
v 0.969564 -0.493285 0.969564
v 0.969564 -0.962483 0.969564
v -0.490499 -0.962483 1.071177
v -0.490499 -0.493285 1.071177
v -0.969564 -0.493285 0.969564
v -0.969564 -0.962483 0.969564
v 0.490499 -0.962483 1.071177
v 0.490499 -0.493285 1.071177
v 0.000000 -0.493285 1.183272
v 0.000000 -0.962483 1.183272
v -0.490499 -0.962483 -1.071177
v -0.490499 -0.493285 -1.071177
v 0.000000 -0.493285 -1.183272
v 0.000000 -0.962483 -1.183272
vt 0.523438 0.828125
vt 0.523438 0.828125
vt 0.523438 0.828125
vt 0.523438 0.828125
vt 0.523438 0.828125
vt 0.523438 0.828125
vt 0.523438 0.828125
vt 0.523438 0.828125
vt 0.523438 0.828125
vt 0.523438 0.828125
vt 0.523438 0.828125
vt 0.523438 0.828125
vt 0.523438 0.828125
vt 0.523438 0.828125
vt 0.523438 0.828125
vt 0.523438 0.828125
vt 0.523438 0.828125
vt 0.523438 0.828125
vt 0.523438 0.828125
vt 0.523438 0.828125
vt 0.523438 0.828125
vt 0.523438 0.828125
vt 0.523438 0.828125
vt 0.523438 0.828125
vt 0.523438 0.828125
vt 0.523438 0.828125
vt 0.523438 0.828125
vt 0.523438 0.828125
vt 0.523438 0.828125
vt 0.523438 0.828125
vt 0.523438 0.828125
vt 0.523438 0.828125
vt 0.523438 0.828125
vt 0.523438 0.828125
vt 0.523438 0.828125
vt 0.523438 0.828125
vt 0.523438 0.828125
vt 0.523438 0.828125
vt 0.523438 0.828125
vt 0.523438 0.828125
vt 0.523438 0.828125
vt 0.523438 0.828125
vt 0.523438 0.828125
vt 0.523438 0.828125
vt 0.523438 0.828125
vt 0.523438 0.828125
vt 0.523438 0.828125
vt 0.523438 0.828125
vt 0.523438 0.828125
vt 0.523438 0.828125
vt 0.523438 0.828125
vt 0.523438 0.828125
vt 0.523438 0.828125
vt 0.523438 0.828125
vt 0.523438 0.828125
vt 0.523438 0.828125
vt 0.523438 0.828125
vt 0.523438 0.828125
vt 0.523438 0.828125
vt 0.523438 0.828125
vt 0.523438 0.828125
vt 0.523438 0.828125
vt 0.523438 0.828125
vt 0.523438 0.828125
vt 0.523438 0.828125
vt 0.523438 0.828125
vt 0.523438 0.828125
vt 0.523438 0.828125
vt 0.523438 0.828125
vt 0.523438 0.828125
vt 0.523438 0.828125
vt 0.523438 0.828125
vt 0.523438 0.828125
vt 0.523438 0.828125
vt 0.523438 0.828125
vt 0.523438 0.828125
vt 0.523438 0.828125
vt 0.523438 0.828125
vt 0.523438 0.828125
vt 0.523438 0.828125
vt 0.523438 0.828125
vt 0.523438 0.828125
vt 0.523438 0.828125
vt 0.523438 0.828125
vt 0.523438 0.828125
vt 0.523438 0.828125
vt 0.523438 0.828125
vt 0.523438 0.828125
vt 0.523438 0.828125
vt 0.523438 0.828125
vt 0.523438 0.828125
vt 0.523438 0.828125
vt 0.523438 0.828125
vt 0.523438 0.828125
vt 0.523438 0.828125
vt 0.523438 0.828125
vt 0.523438 0.828125
vt 0.523438 0.828125
vt 0.523438 0.828125
vt 0.523438 0.828125
vt 0.523438 0.828125
vt 0.523438 0.828125
vt 0.523438 0.828125
vt 0.523438 0.828125
vt 0.523438 0.828125
vt 0.523438 0.828125
vt 0.523438 0.828125
vt 0.523438 0.828125
vt 0.523438 0.828125
vt 0.523438 0.828125
vt 0.523438 0.828125
vt 0.523438 0.828125
vt 0.523438 0.828125
vt 0.523438 0.828125
vt 0.523438 0.828125
vt 0.523438 0.828125
vt 0.523438 0.828125
vt 0.523438 0.828125
vt 0.523438 0.828125
vt 0.523438 0.828125
vt 0.523438 0.828125
vt 0.523438 0.828125
vt 0.523438 0.828125
vt 0.523438 0.828125
vt 0.523438 0.828125
vt 0.523438 0.828125
vt 0.523438 0.828125
vt 0.523438 0.828125
vt 0.523438 0.828125
vt 0.523438 0.828125
vt 0.523438 0.828125
vt 0.523438 0.828125
vt 0.523438 0.828125
vt 0.523438 0.828125
vt 0.523438 0.828125
vt 0.523438 0.828125
vt 0.523438 0.828125
vt 0.523438 0.828125
vt 0.523438 0.828125
vt 0.523438 0.828125
vt 0.523438 0.828125
vt 0.523438 0.828125
vt 0.523438 0.828125
vt 0.523438 0.828125
vt 0.523438 0.828125
vt 0.523438 0.828125
vt 0.523438 0.828125
vt 0.523438 0.828125
vt 0.523438 0.828125
vt 0.523438 0.828125
vt 0.523438 0.828125
vt 0.523438 0.828125
vt 0.523438 0.828125
vt 0.523438 0.828125
vt 0.523438 0.828125
vt 0.523438 0.828125
vt 0.523438 0.828125
vt 0.523438 0.828125
vt 0.523438 0.828125
vt 0.523438 0.828125
vt 0.523438 0.828125
vt 0.523438 0.828125
vt 0.523438 0.828125
vt 0.523438 0.828125
vt 0.523438 0.828125
vt 0.523438 0.828125
vt 0.523438 0.828125
vt 0.523438 0.828125
vt 0.523438 0.828125
vt 0.523438 0.828125
vt 0.523438 0.828125
vt 0.523438 0.828125
vt 0.523438 0.828125
vt 0.523438 0.828125
vt 0.523438 0.828125
vt 0.523438 0.828125
vt 0.523438 0.828125
vt 0.523438 0.828125
vt 0.523438 0.828125
vt 0.523438 0.828125
vt 0.523438 0.828125
vt 0.523438 0.828125
vt 0.523438 0.828125
vt 0.523438 0.828125
vt 0.523438 0.828125
vt 0.523438 0.828125
vt 0.523438 0.828125
vt 0.523438 0.828125
vt 0.523438 0.828125
vt 0.523438 0.828125
vt 0.523438 0.828125
vt 0.523438 0.828125
vt 0.523438 0.828125
vt 0.523438 0.828125
vt 0.523438 0.828125
vt 0.523438 0.828125
vt 0.523438 0.828125
vt 0.523438 0.828125
vt 0.523438 0.828125
vt 0.523438 0.828125
vt 0.089383 0.949040
vt 0.089383 0.949040
vt 0.089383 0.949040
vt 0.089383 0.949040
vt 0.089383 0.949040
vt 0.089383 0.949040
vt 0.089383 0.949040
vt 0.089383 0.949040
vt 0.089383 0.949040
vt 0.089383 0.949040
vt 0.089383 0.949040
vt 0.089383 0.949040
vt 0.089383 0.949040
vt 0.089383 0.949040
vt 0.089383 0.949040
vt 0.089383 0.949040
vt 0.089383 0.949040
vt 0.089383 0.949040
vt 0.089383 0.949040
vt 0.089383 0.949040
vt 0.089383 0.949040
vt 0.089383 0.949040
vt 0.089383 0.949040
vt 0.089383 0.949040
vt 0.089383 0.949040
vt 0.089383 0.949040
vt 0.089383 0.949040
vt 0.089383 0.949040
vt 0.089383 0.949040
vt 0.089383 0.949040
vt 0.089383 0.949040
vt 0.089383 0.949040
vt 0.089383 0.949040
vt 0.089383 0.949040
vt 0.089383 0.949040
vt 0.089383 0.949040
vt 0.089383 0.949040
vt 0.089383 0.949040
vt 0.089383 0.949040
vt 0.089383 0.949040
vt 0.089383 0.949040
vt 0.089383 0.949040
vt 0.089383 0.949040
vt 0.089383 0.949040
vt 0.089383 0.949040
vt 0.089383 0.949040
vt 0.089383 0.949040
vt 0.089383 0.949040
vt 0.089383 0.949040
vt 0.089383 0.949040
vt 0.089383 0.949040
vt 0.089383 0.949040
vt 0.089383 0.949040
vt 0.089383 0.949040
vt 0.089383 0.949040
vt 0.089383 0.949040
vt 0.089383 0.949040
vt 0.089383 0.949040
vt 0.089383 0.949040
vt 0.089383 0.949040
vt 0.089383 0.949040
vt 0.089383 0.949040
vt 0.089383 0.949040
vt 0.089383 0.949040
vt 0.089383 0.949040
vt 0.089383 0.949040
vt 0.089383 0.949040
vt 0.089383 0.949040
vt 0.089383 0.949040
vt 0.089383 0.949040
vt 0.089383 0.949040
vt 0.089383 0.949040
vt 0.089383 0.949040
vt 0.089383 0.949040
vt 0.089383 0.949040
vt 0.089383 0.949040
vt 0.089383 0.949040
vt 0.089383 0.949040
vt 0.089383 0.949040
vt 0.089383 0.949040
vt 0.089383 0.949040
vt 0.089383 0.949040
vt 0.089383 0.949040
vt 0.089383 0.949040
vt 0.523438 0.828125
vt 0.523438 0.828125
vt 0.523438 0.828125
vt 0.523438 0.828125
vt 0.523438 0.828125
vt 0.523438 0.828125
vt 0.523438 0.828125
vn 0.5633 -0.6044 -0.5633
vn 0.3600 -0.8565 -0.3699
vn 0.6303 -0.7764 0.0000
vn 0.7507 -0.6606 0.0000
vn 0.5633 -0.6044 0.5633
vn 0.3600 -0.8565 0.3699
vn -0.2326 -0.9140 0.3325
vn -0.4357 -0.5774 0.6905
vn -0.2326 -0.9140 -0.3325
vn -0.4357 -0.5774 -0.6905
vn -0.0972 -0.2989 -0.9493
vn -0.4350 -0.5772 -0.6911
vn -0.5633 -0.6044 -0.5633
vn -0.3600 -0.8565 -0.3699
vn 0.2326 -0.9140 -0.3325
vn 0.4357 -0.5774 -0.6905
vn 0.0000 -1.0000 0.0000
vn 0.0000 -0.9990 0.0453
vn 0.0000 -0.6987 -0.7154
vn 0.1254 -0.7209 -0.6816
vn -0.6587 0.7524 0.0000
vn -0.3790 0.8459 -0.3752
vn 0.5658 0.5972 0.5685
vn 0.7336 0.6796 0.0000
vn 0.3941 -0.6728 0.6261
vn -0.3941 -0.6728 0.6261
vn 0.0000 -0.6602 0.7511
vn -0.7507 -0.6606 0.0000
vn -0.3694 -0.8514 -0.3724
vn -0.6512 -0.7589 0.0000
vn -0.5633 0.6044 -0.5633
vn 0.4357 0.5774 -0.6905
vn 0.3941 -0.6728 -0.6261
vn -0.3941 -0.6728 -0.6261
vn 0.2326 -0.9140 0.3325
vn 0.0000 -0.9990 -0.0453
vn 0.0000 -0.6987 0.7154
vn -0.1254 -0.7209 0.6816
vn -0.1525 0.6993 0.6984
vn -0.3790 0.8459 0.3752
vn 0.5658 0.5972 -0.5685
vn 0.1273 0.7135 -0.6890
vn 0.4357 -0.5774 0.6905
vn -0.3600 -0.8565 0.3699
vn -0.5633 -0.6044 0.5633
vn -0.5633 0.6044 0.5633
vn -0.7507 0.6606 0.0000
vn 0.0000 0.7478 0.6639
vn 0.0000 0.6606 0.7507
vn -0.1561 0.7071 0.6897
vn 0.1525 0.6993 -0.6984
vn 0.0000 0.7478 -0.6639
vn 0.0000 0.6606 -0.7507
vn 0.1561 0.7071 -0.6897
vn -0.1525 0.6993 -0.6984
vn -0.1561 0.7071 -0.6897
vn 0.6587 0.7524 0.0000
vn 0.3790 0.8459 0.3752
vn -0.5658 0.5972 -0.5685
vn -0.7336 0.6796 0.0000
vn -0.6303 -0.7764 0.0000
vn -0.7264 -0.6873 0.0000
vn -0.5619 -0.6006 -0.5688
vn 0.3790 0.8459 -0.3752
vn -0.5658 0.5972 0.5685
vn -0.1254 -0.7209 -0.6816
vn -0.1273 0.7135 -0.6890
vn 0.1254 -0.7209 0.6816
vn 0.5619 -0.6006 0.5688
vn 0.1273 0.7135 0.6890
vn 0.7264 -0.6873 0.0000
vn -0.5619 -0.6006 0.5688
vn 0.0000 0.6836 0.7299
vn -0.1273 0.7135 0.6890
vn -0.0000 0.6836 -0.7299
vn 0.5619 -0.6006 -0.5688
vn 0.1525 0.6993 0.6984
vn 0.0000 1.0000 0.0000
vn 0.7507 0.6606 0.0000
vn 0.5633 0.6044 -0.5633
vn 0.1561 0.7071 0.6897
vn 0.5633 0.6044 0.5633
vn -0.4357 0.5774 0.6905
vn 0.3694 0.8514 0.3724
vn -0.0972 0.2989 0.9493
vn -0.4357 0.5774 -0.6905
vn -0.0972 0.2989 -0.9493
vn 0.3694 0.8514 -0.3724
vn 0.6512 0.7589 -0.0000
vn -0.3694 -0.8514 0.3724
vn 0.0972 -0.2989 0.9493
vn 0.4357 0.5774 0.6905
vn 0.0972 0.2989 0.9493
vn 0.3694 -0.8514 -0.3724
vn -0.0972 -0.2989 0.9493
vn 0.3694 -0.8514 0.3724
vn 0.4350 -0.5772 -0.6911
vn 0.0972 -0.2989 -0.9493
vn 0.6512 -0.7589 0.0000
vn 0.4350 -0.5772 0.6911
vn -0.3694 0.8514 0.3724
vn -0.6512 0.7589 0.0000
vn 0.0000 -0.7609 0.6489
vn -0.4350 -0.5772 0.6911
vn 0.0000 -0.7609 -0.6489
vn 0.0000 -0.6602 -0.7511
vn -0.3694 0.8514 -0.3724
vn 0.0972 0.2989 -0.9493
vn 0.0000 0.0000 1.0000
vn 0.0000 0.0000 -1.0000
usemtl Material
s 1
f 101/1/1 8/2/2 14/3/3 104/4/4
f 103/5/5 6/6/6 65/7/7 112/8/8
f 62/9/9 114/10/10 174/11/11 146/12/12
f 99/13/13 4/14/14 50/15/15 108/16/16
f 66/17/17 13/18/4 5/19/5 63/20/8
f 62/9/9 9/21/18 25/22/19 69/23/20
f 20/24/21 21/25/22 31/26/23 32/27/24
f 140/28/25 147/29/26 141/30/27
f 86/31/28 79/32/13 161/33/29 166/34/30
f 3/35/13 117/36/31 126/37/32 48/38/16
f 66/17/17 52/39/17 48/38/16 144/40/33 136/41/34 64/42/10
f 49/43/35 10/44/36 29/45/37 55/46/38
f 67/47/39 19/48/40 37/49/41 71/50/42
f 64/42/10 7/51/1 13/18/4 66/17/17
f 114/10/10 62/9/9 8/2/2 101/1/1
f 110/52/43 49/43/35 2/53/44 97/54/45
f 20/24/21 19/48/40 42/55/46 43/56/47
f 67/47/39 18/57/48 41/58/49 73/59/50
f 53/60/51 22/61/52 45/62/53 59/63/54
f 68/64/55 21/25/22 44/65/31 74/66/56
f 19/48/40 20/24/21 32/27/24 37/49/41
f 16/67/57 17/68/58 35/69/59 33/70/60
f 4/14/14 12/71/61 15/72/62 24/73/63
f 23/74/64 16/67/57 33/70/60 34/75/65
f 56/76/66 24/73/63 35/69/59 58/77/67
f 70/78/68 28/79/69 31/26/23 72/80/70
f 28/79/69 27/81/71 32/27/24 31/26/23
f 15/72/62 30/82/72 34/75/65 33/70/60
f 24/73/63 15/72/62 33/70/60 35/69/59
f 55/46/38 29/45/37 38/83/73 57/84/74
f 69/23/20 25/22/19 36/85/75 71/50/42
f 27/81/71 26/86/76 37/49/41 32/27/24
f 53/60/51 23/74/64 34/75/65 57/84/74
f 50/15/15 4/14/14 24/73/63 56/76/66
f 12/71/61 2/53/44 30/82/72 15/72/62
f 54/87/77 18/57/48 36/85/75 58/77/67
f 68/64/55 22/61/52 38/83/73 72/80/70
f 65/7/7 6/6/6 28/79/69 70/78/68
f 6/6/6 14/3/3 27/81/71 28/79/69
f 14/3/3 8/2/2 26/86/76 27/81/71
f 61/88/78 39/89/79 46/90/80 59/63/54
f 75/91/78 47/92/78 45/62/53 74/66/56
f 73/59/50 41/58/49 47/92/78 75/91/78
f 60/93/81 40/94/82 39/89/79 61/88/78
f 54/87/77 17/68/58 40/94/82 60/93/81
f 21/25/22 20/24/21 43/56/47 44/65/31
f 17/68/58 16/67/57 39/89/79 40/94/82
f 16/67/57 23/74/64 46/90/80 39/89/79
f 18/57/48 54/87/77 60/93/81 41/58/49
f 41/58/49 60/93/81 61/88/78 47/92/78
f 47/92/78 61/88/78 59/63/54 45/62/53
f 17/68/58 54/87/77 58/77/67 35/69/59
f 9/21/18 50/15/15 56/76/66 25/22/19
f 22/61/52 53/60/51 57/84/74 38/83/73
f 30/82/72 55/46/38 57/84/74 34/75/65
f 25/22/19 56/76/66 58/77/67 36/85/75
f 23/74/64 53/60/51 59/63/54 46/90/80
f 2/53/44 49/43/35 55/46/38 30/82/72
f 3/35/13 48/38/16 52/39/17 11/95/28
f 106/96/28 12/71/61 4/14/14 99/13/13
f 11/95/28 52/39/17 51/97/43 1/98/45
f 93/99/83 82/100/82 152/101/84 155/102/85
f 42/55/46 73/59/50 75/91/78 43/56/47
f 43/56/47 75/91/78 74/66/56 44/65/31
f 10/44/36 65/7/7 70/78/68 29/45/37
f 21/25/22 68/64/55 72/80/70 31/26/23
f 26/86/76 69/23/20 71/50/42 37/49/41
f 29/45/37 70/78/68 72/80/70 38/83/73
f 22/61/52 68/64/55 74/66/56 45/62/53
f 19/48/40 67/47/39 73/59/50 42/55/46
f 52/39/17 66/17/17 63/20/8 147/29/26 140/28/25 51/97/43
f 18/57/48 67/47/39 71/50/42 36/85/75
f 104/4/4 14/3/3 6/6/6 103/5/5
f 8/2/2 62/9/9 69/23/20 26/86/76
f 80/103/80 95/104/86 151/105/87 168/106/88
f 97/54/45 2/53/44 12/71/61 106/96/28
f 105/107/79 100/108/80 192/109/88 195/110/89
f 129/111/43 134/112/45 210/113/90 209/114/91
f 94/115/10 115/116/86 100/108/80 81/117/1
f 90/118/43 111/119/92 96/120/46 77/121/45
f 84/122/4 105/107/79 102/123/82 83/124/5
f 111/119/92 90/118/43 158/125/91 183/126/93
f 94/115/10 81/117/1 169/127/94 150/128/11
f 134/112/45 76/129/46 87/130/47 125/131/28
f 83/124/5 102/123/82 113/132/83 92/133/8
f 81/117/1 100/108/80 105/107/79 84/122/4
f 79/32/13 98/134/31 109/135/32 88/136/16
f 83/124/5 92/133/8 154/137/95 153/138/96
f 120/139/5 82/100/82 93/99/83 131/140/8
f 108/16/16 50/15/15 138/141/97 186/142/98
f 116/143/13 78/144/31 89/145/32 127/146/16
f 86/31/28 107/147/47 98/134/31 79/32/13
f 118/148/1 80/103/80 85/149/79 123/150/4
f 82/100/82 85/149/79 171/151/89 152/101/84
f 101/1/1 104/4/4 194/152/99 193/153/94
f 77/121/45 96/120/46 107/147/47 86/31/28
f 123/150/4 85/149/79 82/100/82 120/139/5
f 133/154/10 95/104/86 80/103/80 118/148/1
f 125/131/28 87/130/47 78/144/31 116/143/13
f 7/51/1 119/155/80 122/156/79 13/18/4
f 5/19/5 121/157/82 130/158/83 63/20/8
f 121/157/82 122/156/79 204/159/89 207/160/84
f 84/122/4 83/124/5 153/138/96 170/161/99
f 1/98/45 135/162/46 124/163/47 11/95/28
f 64/42/10 132/164/86 119/155/80 7/51/1
f 51/97/43 128/165/92 135/162/46 1/98/45
f 11/95/28 124/163/47 117/36/31 3/35/13
f 91/166/92 129/111/43 209/114/91 159/167/93
f 13/18/4 122/156/79 121/157/82 5/19/5
f 49/43/35 110/52/43 182/168/91 145/169/100
f 76/129/46 91/166/92 159/167/93 164/170/101
f 107/147/47 96/120/46 188/171/101 191/172/102
f 123/150/4 120/139/5 206/173/96 205/174/99
f 65/7/7 10/44/36 143/175/103 142/176/104
f 90/118/43 77/121/45 165/177/90 158/125/91
f 10/44/36 49/43/35 145/169/100 143/175/103
f 97/54/45 106/96/28 190/178/30 189/179/90
f 119/155/80 132/164/86 200/180/87 203/181/88
f 9/21/18 62/9/9 146/12/12 139/182/105
f 130/158/83 121/157/82 207/160/84 212/183/85
f 50/15/15 9/21/18 139/182/105 138/141/97
f 120/139/5 131/140/8 213/184/95 206/173/96
f 136/41/34 144/40/33 137/185/106
f 109/135/32 98/134/31 184/186/107 187/187/108
f 133/154/10 118/148/1 202/188/94 201/189/11
f 85/149/79 80/103/80 168/106/88 171/151/89
f 99/13/13 108/16/16 186/142/98 185/190/29
f 117/36/31 124/163/47 196/191/102 199/192/107
f 126/37/32 117/36/31 199/192/107 216/193/108
f 131/140/8 93/99/83 155/102/85 213/184/95
f 128/165/92 51/97/43 140/28/25 208/194/93
f 116/143/13 127/146/16 217/195/98 198/196/29
f 92/133/8 113/132/83 179/197/85 154/137/95
f 81/117/1 84/122/4 170/161/99 169/127/94
f 125/131/28 116/143/13 198/196/29 197/198/30
f 124/163/47 135/162/46 211/199/101 196/191/102
f 63/20/8 130/158/83 212/183/85 147/29/26
f 134/112/45 125/131/28 197/198/30 210/113/90
f 87/130/47 76/129/46 164/170/101 167/200/102
f 98/134/31 107/147/47 191/172/102 184/186/107
f 122/156/79 119/155/80 203/181/88 204/159/89
f 132/164/86 64/42/10 136/41/34 200/180/87
f 106/96/28 99/13/13 185/190/29 190/178/30
f 129/111/43 91/166/92 76/129/46 134/112/45
f 181/201/109 143/202/103 145/203/100 182/204/91
f 173/205/110 139/206/105 146/207/12 174/208/11
f 178/209/95 142/210/104 143/202/103 181/201/109
f 186/211/98 138/212/97 139/206/105 173/205/110
f 154/213/95 179/214/85 180/215/109 157/216/109
f 162/217/98 187/218/108 172/219/110 149/220/110
f 149/220/110 172/219/110 175/221/87 150/222/11
f 157/216/109 180/215/109 183/223/93 158/224/91
f 218/225/110 148/226/110 151/227/87 201/228/11
f 214/229/109 156/230/109 159/231/93 209/232/91
f 217/233/98 163/234/108 148/226/110 218/225/110
f 213/235/95 155/236/85 156/230/109 214/229/109
f 141/237/27 215/238/109 208/239/93 140/240/25
f 137/241/106 219/242/110 200/243/87 136/244/34
f 147/245/26 212/246/85 215/238/109 141/237/27
f 144/247/33 216/248/108 219/242/110 137/241/106
f 149/220/110 150/222/11 151/227/87 148/226/110
f 153/249/96 154/213/95 155/236/85 152/250/84
f 157/216/109 158/224/91 159/231/93 156/230/109
f 161/251/29 162/217/98 163/234/108 160/252/107
f 165/253/90 166/254/30 167/255/102 164/256/101
f 169/257/94 170/258/99 171/259/89 168/260/88
f 162/217/98 149/220/110 148/226/110 163/234/108
f 154/213/95 157/216/109 156/230/109 155/236/85
f 158/224/91 165/253/90 164/256/101 159/231/93
f 170/258/99 153/249/96 152/250/84 171/259/89
f 150/222/11 169/257/94 168/260/88 151/227/87
f 166/254/30 161/251/29 160/252/107 167/255/102
f 173/205/110 174/208/11 175/221/87 172/219/110
f 177/261/96 178/209/95 179/214/85 176/262/84
f 181/201/109 182/204/91 183/223/93 180/215/109
f 185/263/29 186/211/98 187/218/108 184/264/107
f 189/265/90 190/266/30 191/267/102 188/268/101
f 193/269/94 194/270/99 195/271/89 192/272/88
f 186/211/98 173/205/110 172/219/110 187/218/108
f 178/209/95 181/201/109 180/215/109 179/214/85
f 182/204/91 189/265/90 188/268/101 183/223/93
f 194/270/99 177/261/96 176/262/84 195/271/89
f 174/208/11 193/269/94 192/272/88 175/221/87
f 190/266/30 185/263/29 184/264/107 191/267/102
f 197/273/30 198/274/29 199/275/107 196/276/102
f 201/228/11 202/277/94 203/278/88 200/243/87
f 205/279/99 206/280/96 207/281/84 204/282/89
f 209/232/91 210/283/90 211/284/101 208/239/93
f 213/235/95 214/229/109 215/238/109 212/246/85
f 217/233/98 218/225/110 219/242/110 216/248/108
f 202/277/94 205/279/99 204/282/89 203/278/88
f 210/283/90 197/273/30 196/276/102 211/284/101
f 198/274/29 217/233/98 216/248/108 199/275/107
f 214/229/109 209/232/91 208/239/93 215/238/109
f 206/280/96 213/235/95 212/246/85 207/281/84
f 218/225/110 201/228/11 200/243/87 219/242/110
f 135/162/46 128/165/92 208/194/93 211/199/101
f 78/144/31 87/130/47 167/200/102 160/285/107
f 112/8/8 65/7/7 142/176/104 178/286/95
f 88/136/16 109/135/32 187/187/108 162/287/98
f 110/52/43 97/54/45 189/179/90 182/168/91
f 127/146/16 89/145/32 163/288/108 217/195/98
f 96/120/46 111/119/92 183/126/93 188/171/101
f 79/32/13 88/136/16 162/287/98 161/33/29
f 115/116/86 94/115/10 150/128/11 175/289/87
f 104/4/4 103/5/5 177/290/96 194/152/99
f 48/38/16 126/37/32 216/193/108 144/40/33
f 102/123/82 105/107/79 195/110/89 176/291/84
f 103/5/5 112/8/8 178/286/95 177/290/96
f 89/145/32 78/144/31 160/285/107 163/288/108
f 95/104/86 133/154/10 201/189/11 151/105/87
f 114/10/10 101/1/1 193/153/94 174/11/11
f 100/108/80 115/116/86 175/289/87 192/109/88
f 113/132/83 102/123/82 176/291/84 179/197/85
f 77/121/45 86/31/28 166/34/30 165/177/90
f 118/148/1 123/150/4 205/174/99 202/188/94
