# Blender v3.1.2 OBJ File: 'SierraSandstormTestMap.blend'
# www.blender.org
mtllib SierraSandstormTestMap.mtl
o SierraSandstormTestMap_Cube.004
v -2.000000 -2.000000 2.000000
v -2.000000 2.000000 2.000000
v -2.000000 -2.000000 -2.000000
v -2.000000 2.000000 -2.000000
v 2.000000 -2.000000 2.000000
v 2.000000 2.000000 2.000000
v 2.000000 -2.000000 -2.000000
v 2.000000 2.000000 -2.000000
v -5.000000 -2.000000 30.000000
v -5.000000 8.000000 30.000000
v 5.000000 8.000000 30.000000
v 5.000000 -2.000000 30.000000
v -5.000000 -2.000000 49.000000
v -5.000000 8.000000 49.000000
v 5.000000 8.000000 49.000000
v 5.000000 -2.000000 49.000000
v -28.000000 -2.000000 30.000000
v -28.000000 8.000000 30.000000
v 28.000000 8.000000 30.000000
v 28.000000 -2.000000 30.000000
v -28.000000 -2.000000 49.000000
v -28.000000 8.000000 49.000000
v 28.000000 8.000000 49.000000
v 28.000000 -2.000000 49.000000
v -5.000000 -2.000000 66.000000
v -5.000000 8.000000 66.000000
v 5.000000 8.000000 66.000000
v 5.000000 -2.000000 66.000000
v -28.000000 -2.000000 66.000000
v -28.000000 8.000000 66.000000
v 28.000000 8.000000 66.000000
v 28.000000 -2.000000 66.000000
v -2.000000 2.000000 -17.000000
v -2.000000 -2.000000 -17.000000
v 2.000000 -2.000000 -17.000000
v 2.000000 2.000000 -17.000000
v -3.000000 -2.000000 -2.000000
v -3.000000 -2.000000 2.000000
v -3.000000 3.000000 2.000000
v -3.000000 3.000000 -2.000000
v 3.000000 3.000000 -2.000000
v 3.000000 -2.000000 -2.000000
v 3.000000 -2.000000 2.000000
v 3.000000 3.000000 2.000000
v 5.000000 8.000000 42.000000
v -5.000000 8.000000 42.000000
v 5.000000 -2.000000 42.000000
v -5.000000 -2.000000 42.000000
v 28.000000 8.000000 42.000000
v -28.000000 8.000000 42.000000
v 28.000000 -2.000000 42.000000
v -28.000000 -2.000000 42.000000
v -2.000000 1.000000 2.000000
v -2.000000 1.000000 -2.000000
v 2.000000 1.000000 -2.000000
v 2.000000 1.000000 2.000000
v -5.000000 4.000000 30.000000
v 5.000000 4.000000 30.000000
v -28.000000 4.000000 30.000000
v 28.000000 4.000000 30.000000
v -28.000000 4.000000 49.000000
v 28.000000 4.000000 49.000000
v -5.000000 4.000000 66.000000
v 5.000000 4.000000 66.000000
v -28.000000 4.000000 66.000000
v 28.000000 4.000000 66.000000
v -2.000000 1.000000 -17.000000
v 2.000000 1.000000 -17.000000
v -3.000000 2.000000 2.000000
v -3.000000 2.000000 -2.000000
v 3.000000 2.000000 -2.000000
v 3.000000 2.000000 2.000000
v -28.000000 4.000000 42.000000
v 28.000000 4.000000 42.000000
v -38.000000 -2.000000 43.000000
v -38.000000 -2.000000 48.000000
v -38.000000 2.000000 43.000000
v -38.000000 2.000000 48.000000
v -49.000000 -2.000000 43.000000
v -49.000000 -2.000000 48.000000
v -49.000000 2.000000 43.000000
v -49.000000 2.000000 48.000000
v -52.000000 -2.000000 43.000000
v -52.000000 -2.000000 48.000000
v -51.034557 12.000000 35.034557
v -49.000000 -2.000000 33.000000
v -49.000000 -2.000000 58.000000
v -51.034557 12.000000 55.965443
v -67.000000 -2.000000 33.000000
v -67.000000 -2.000000 58.000000
v -64.965446 12.000000 35.034557
v -64.965446 12.000000 55.965443
v -56.000000 -4.000000 40.000000
v -56.000000 -4.000000 51.000000
v -67.000000 -4.000000 33.000000
v -49.000000 -4.000000 43.000000
v -49.000000 -4.000000 33.000000
v -49.000000 -4.000000 48.000000
v -49.000000 -4.000000 58.000000
v -67.000000 -4.000000 58.000000
v 40.000000 4.000000 49.000000
v 40.000000 -2.000000 49.000000
v 40.000000 -2.000000 42.000000
v 40.000000 4.000000 42.000000
v 46.000000 4.000000 49.000000
v 46.000000 -2.000000 49.000000
v 46.000000 -2.000000 42.000000
v 40.000000 4.000000 74.000000
v 40.000000 -2.000000 74.000000
v 46.000000 4.000000 74.000000
v 46.000000 -2.000000 74.000000
v 40.000000 4.000000 82.000000
v 40.000000 -2.000000 82.000000
v 46.000000 -2.000000 82.000000
v 5.000000 4.000000 74.000000
v 5.000000 -2.000000 74.000000
v 5.000000 4.000000 82.000000
v 5.000000 -2.000000 82.000000
v -5.000000 4.000000 74.000000
v -5.000000 -2.000000 74.000000
v -5.000000 -2.000000 82.000000
v 53.965443 14.000000 76.034561
v 56.000000 -2.000000 74.000000
v 42.034557 14.000000 76.034561
v 42.034557 14.000000 89.965439
v 40.000000 -2.000000 92.000000
v 53.965443 14.000000 89.965439
v 56.000000 -2.000000 92.000000
v 40.000000 -2.000000 32.000000
v 42.034557 14.000000 34.034557
v 42.034557 14.000000 46.965443
v 53.965443 14.000000 46.965443
v 56.000000 -2.000000 49.000000
v 56.000000 -2.000000 32.000000
v 53.965443 14.000000 34.034557
v 2.965444 14.000000 89.965439
v 5.000000 -2.000000 92.000000
v 2.965444 14.000000 76.034561
v -12.965444 14.000000 76.034561
v -15.000000 -2.000000 74.000000
v -12.965444 14.000000 89.965439
v -15.000000 -2.000000 92.000000
v -49.000000 12.000000 33.000000
v -49.000000 12.000000 58.000000
v -67.000000 12.000000 33.000000
v -67.000000 12.000000 58.000000
v 40.000000 14.000000 74.000000
v 56.000000 14.000000 74.000000
v 40.000000 14.000000 92.000000
v 56.000000 14.000000 92.000000
v 40.000000 14.000000 32.000000
v 40.000000 14.000000 49.000000
v 56.000000 14.000000 32.000000
v 56.000000 14.000000 49.000000
v 5.000000 14.000000 92.000000
v 5.000000 14.000000 74.000000
v -15.000000 14.000000 92.000000
v -15.000000 14.000000 74.000000
vt 0.500000 0.000000
vt 0.375000 0.000000
vt 0.375000 0.000000
vt 0.500000 0.000000
vt 0.500000 0.500000
vt 0.625000 0.500000
vt 0.625000 0.500000
vt 0.500000 0.500000
vt 0.500000 0.250000
vt 0.625000 0.250000
vt 0.625000 0.250000
vt 0.500000 0.250000
vt 0.875000 0.750000
vt 0.625000 0.750000
vt 0.625000 0.750000
vt 0.875000 0.750000
vt 0.125000 0.500000
vt 0.125000 0.750000
vt 0.375000 0.750000
vt 0.375000 0.500000
vt 0.875000 0.500000
vt 0.625000 0.500000
vt 0.875000 0.500000
vt 0.875000 0.750000
vt 0.625000 0.750000
vt 0.625000 0.750000
vt 0.875000 0.750000
vt 0.500000 0.750000
vt 0.375000 0.750000
vt 0.500000 0.750000
vt 0.625000 0.000000
vt 0.625000 0.000000
vt 0.500000 0.000000
vt 0.125000 0.750000
vt 0.500000 0.750000
vt 0.375000 0.750000
vt 0.375000 0.750000
vt 0.500000 0.750000
vt 0.625000 0.750000
vt 0.625000 0.750000
vt 0.375000 0.750000
vt 0.125000 0.750000
vt 0.125000 0.750000
vt 0.375000 0.750000
vt 0.375000 0.750000
vt 0.500000 0.750000
vt 0.375000 0.750000
vt 0.500000 0.750000
vt 0.500000 0.000000
vt 0.625000 0.000000
vt 0.625000 0.000000
vt 0.500000 0.000000
vt 0.375000 0.750000
vt 0.500000 0.750000
vt 0.125000 0.750000
vt 0.375000 0.750000
vt 0.125000 0.750000
vt 0.125000 0.750000
vt 0.875000 0.750000
vt 0.875000 0.750000
vt 0.625000 0.000000
vt 0.500000 0.000000
vt 0.625000 0.750000
vt 0.625000 0.750000
vt 0.625000 0.750000
vt 0.500000 0.750000
vt 0.500000 1.000000
vt 0.625000 1.000000
vt 0.375000 1.000000
vt 0.375000 1.000000
vt 0.500000 1.000000
vt 0.125000 0.750000
vt 0.125000 0.750000
vt 0.875000 0.750000
vt 0.875000 0.750000
vt 0.625000 0.000000
vt 0.500000 0.000000
vt 0.500000 0.250000
vt 0.625000 0.250000
vt 0.375000 0.500000
vt 0.125000 0.500000
vt 0.875000 0.500000
vt 0.375000 0.250000
vt 0.375000 0.250000
vt 0.625000 0.000000
vt 0.500000 0.500000
vt 0.500000 0.750000
vt 0.625000 0.750000
vt 0.875000 0.750000
vt 0.375000 0.500000
vt 0.125000 0.500000
vt 0.125000 0.750000
vt 0.375000 0.750000
vt 0.875000 0.750000
vt 0.375000 0.000000
vt 0.375000 0.000000
vt 0.375000 0.250000
vt 0.375000 0.000000
vt 0.375000 0.000000
vt 0.625000 1.000000
vt 0.500000 0.750000
vt 0.375000 0.750000
vt 0.375000 0.000000
vt 0.500000 0.000000
vt 0.375000 0.000000
vt 0.500000 0.000000
vt 0.500000 0.000000
vt 0.500000 0.000000
vt 0.125000 0.750000
vt 0.125000 0.750000
vt 0.375000 0.000000
vt 0.125000 0.750000
vt 0.125000 0.750000
vt 0.125000 0.750000
vt 0.125000 0.750000
vt 0.375000 0.000000
vt 0.375000 0.000000
vt 0.125000 0.750000
vt 0.500000 0.000000
vt 0.500000 0.000000
vt 0.125000 0.750000
vt 0.375000 0.000000
vt 0.375000 0.000000
vt 0.375000 0.000000
vt 0.375000 0.000000
vt 0.375000 0.000000
vt 0.375000 0.000000
vt 0.500000 0.000000
vt 0.500000 0.000000
vt 0.375000 0.000000
vt 0.125000 0.750000
vt 0.125000 0.750000
vt 0.125000 0.750000
vt 0.125000 0.750000
vt 0.125000 0.750000
vt 0.125000 0.750000
vt 0.375000 0.000000
vt 0.375000 0.000000
vt 0.375000 0.000000
vt 0.375000 0.750000
vt 0.375000 0.750000
vt 0.375000 0.750000
vt 0.500000 0.750000
vt 0.375000 0.750000
vt 0.375000 0.750000
vt 0.375000 0.750000
vt 0.500000 0.750000
vt 0.375000 0.750000
vt 0.375000 0.750000
vt 0.500000 0.750000
vt 0.375000 0.750000
vt 0.500000 0.750000
vt 0.500000 0.750000
vt 0.500000 0.750000
vt 0.500000 0.750000
vt 0.375000 0.750000
vt 0.375000 0.750000
vt 0.375000 0.750000
vt 0.500000 0.750000
vt 0.375000 0.750000
vt 0.500000 0.750000
vt 0.500000 0.750000
vt 0.500000 0.750000
vt 0.500000 0.750000
vt 0.375000 0.750000
vt 0.500000 0.750000
vt 0.375000 0.750000
vt 0.375000 0.750000
vt 0.375000 0.750000
vt 0.375000 0.750000
vt 0.500000 0.750000
vt 0.500000 0.750000
vt 0.500000 0.750000
vt 0.500000 0.750000
vt 0.500000 0.750000
vt 0.375000 0.750000
vt 0.500000 0.750000
vt 0.500000 0.000000
vt 0.500000 0.000000
vt 0.500000 0.000000
vt 0.500000 0.000000
vt 0.500000 0.750000
vt 0.500000 0.750000
vt 0.500000 0.750000
vt 0.500000 0.750000
vt 0.500000 0.750000
vt 0.500000 0.750000
vt 0.500000 0.750000
vt 0.500000 0.750000
vt 0.500000 0.750000
vt 0.500000 0.750000
vt 0.500000 0.750000
vt 0.500000 0.750000
vn 0.0000 0.0000 -1.0000
vn -1.0000 0.0000 0.0000
vn 0.0000 0.0000 1.0000
vn 0.0000 -0.9778 0.2095
vn 0.0000 1.0000 0.0000
vn 0.0000 -1.0000 0.0000
vn -0.9943 0.0000 0.1065
vn 0.9943 0.0000 0.1065
vn 1.0000 0.0000 0.0000
vn 0.0995 0.0000 0.9950
vn 0.1961 -0.9806 0.0000
vn 0.0995 0.0000 -0.9950
vn 0.2639 0.3958 -0.8796
vn 0.2639 0.3958 0.8796
vn -0.4472 0.8944 0.0000
usemtl None
s off
f 53/1/1 1/2/1 38/3/1 69/4/1
f 55/5/2 8/6/2 36/7/2 68/8/2
f 54/9/3 4/10/3 40/11/3 70/12/3
f 2/13/4 6/14/4 11/15/4 10/16/4
f 3/17/5 1/18/5 5/19/5 7/20/5
f 4/21/3 8/6/3 41/22/3 40/23/3
f 46/24/6 45/25/6 15/26/6 14/27/6
f 56/28/7 5/19/7 12/29/7 58/30/7
f 53/1/8 2/31/8 10/32/8 57/33/8
f 5/19/5 1/18/5 9/34/5 12/29/5
f 62/35/2 24/36/2 32/37/2 66/38/2
f 45/25/6 11/15/6 19/39/6 49/40/6
f 47/41/5 48/42/5 13/43/5 16/44/5
f 47/41/5 16/44/5 24/36/5 51/45/5
f 74/46/3 51/45/3 103/47/3 104/48/3
f 73/49/9 50/50/9 22/51/9 61/52/9
f 58/30/3 12/29/3 20/53/3 60/54/3
f 16/44/5 13/43/5 25/55/5 28/56/5
f 48/42/5 9/34/5 17/57/5 52/58/5
f 46/24/6 14/27/6 22/59/6 50/60/6
f 57/33/3 10/32/3 18/61/3 59/62/3
f 15/26/6 23/63/6 31/64/6 27/65/6
f 64/66/1 63/67/1 26/68/1 27/65/1
f 63/67/1 25/69/1 29/70/1 65/71/1
f 64/66/1 27/65/1 31/64/1 66/38/1
f 13/43/5 21/72/5 29/73/5 25/55/5
f 24/36/5 16/44/5 28/56/5 32/37/5
f 14/27/6 15/26/6 27/65/6 26/74/6
f 22/59/6 14/27/6 26/74/6 30/75/6
f 61/52/9 22/51/9 30/76/9 65/77/9
f 67/78/3 68/8/3 36/7/3 33/79/3
f 3/17/5 7/20/5 35/80/5 34/81/5
f 8/6/6 4/21/6 33/82/6 36/7/6
f 54/9/9 3/83/9 34/84/9 67/78/9
f 69/4/9 70/12/9 40/11/9 39/85/9
f 71/86/2 72/87/2 44/88/2 41/22/2
f 41/22/6 44/88/6 39/89/6 40/23/6
f 55/5/3 7/20/3 42/90/3 71/86/3
f 6/14/1 2/13/1 39/89/1 44/88/1
f 1/18/5 3/17/5 37/91/5 38/92/5
f 56/28/1 6/14/1 44/88/1 72/87/1
f 7/20/5 5/19/5 43/93/5 42/90/5
f 10/16/6 46/24/6 50/60/6 18/94/6
f 13/43/5 48/42/5 52/58/5 21/72/5
f 59/62/9 18/61/9 50/50/9 73/49/9
f 60/54/2 20/53/2 51/45/2 74/46/2
f 12/29/5 47/41/5 51/45/5 20/53/5
f 12/29/5 9/34/5 48/42/5 47/41/5
f 15/26/6 45/25/6 49/40/6 23/63/6
f 10/16/6 11/15/6 45/25/6 46/24/6
f 19/39/2 60/54/2 74/46/2 49/40/2
f 17/95/9 59/62/9 73/49/9 52/96/9
f 5/19/1 56/28/1 72/87/1 43/93/1
f 8/6/3 55/5/3 71/86/3 41/22/3
f 42/90/2 43/93/2 72/87/2 71/86/2
f 38/3/9 37/97/9 70/12/9 69/4/9
f 4/10/9 54/9/9 67/78/9 33/79/9
f 34/84/3 35/80/3 68/8/3 67/78/3
f 21/98/9 61/52/9 65/77/9 29/99/9
f 28/56/1 64/66/1 66/38/1 32/37/1
f 26/68/1 63/67/1 65/71/1 30/100/1
f 119/101/9 120/102/9 25/69/9 63/67/9
f 9/103/3 57/33/3 59/62/3 17/95/3
f 11/15/3 58/30/3 60/54/3 19/39/3
f 52/96/10 73/49/10 77/104/10 75/105/10
f 49/40/2 74/46/2 62/35/2 23/63/2
f 23/63/2 62/35/2 66/38/2 31/64/2
f 1/2/8 53/1/8 57/33/8 9/103/8
f 6/14/7 56/28/7 58/30/7 11/15/7
f 3/83/3 54/9/3 70/12/3 37/97/3
f 7/20/2 55/5/2 68/8/2 35/80/2
f 2/31/1 53/1/1 69/4/1 39/85/1
f 77/104/6 78/106/6 82/107/6 81/108/6
f 73/49/11 61/52/11 78/106/11 77/104/11
f 21/72/5 52/58/5 75/109/5 76/110/5
f 61/52/12 21/98/12 76/111/12 78/106/12
f 83/112/13 79/113/13 96/114/13 93/115/13
f 75/105/3 77/104/3 81/108/3 79/116/3
f 78/106/1 76/111/1 80/117/1 82/107/1
f 76/110/5 75/109/5 79/113/5 80/118/5
f 81/108/2 82/107/2 144/119/2 143/120/2
f 80/118/5 79/113/5 83/112/5 84/121/5
f 86/122/3 89/123/3 95/124/3 97/125/3
f 82/107/2 80/117/2 87/126/2 144/119/2
f 144/119/1 87/126/1 90/127/1 146/128/1
f 89/123/9 145/129/9 146/128/9 90/127/9
f 86/122/3 143/120/3 145/129/3 89/123/3
f 79/116/2 81/108/2 143/120/2 86/122/2
f 79/116/2 86/122/2 97/125/2 96/130/2
f 98/131/5 94/132/5 100/133/5 99/134/5
f 93/115/5 96/114/5 97/135/5 95/136/5
f 94/132/5 93/115/5 95/136/5 100/133/5
f 90/127/1 87/126/1 99/137/1 100/138/1
f 80/118/14 84/121/14 94/132/14 98/131/14
f 89/123/9 90/127/9 100/138/9 95/124/9
f 84/121/15 83/112/15 93/115/15 94/132/15
f 87/126/2 80/117/2 98/139/2 99/137/2
f 103/47/5 102/140/5 106/141/5 107/142/5
f 24/36/1 62/35/1 101/143/1 102/140/1
f 62/35/6 74/46/6 104/48/6 101/143/6
f 51/45/5 24/36/5 102/140/5 103/47/5
f 107/142/5 106/141/5 133/144/5 134/145/5
f 104/48/9 103/47/9 129/146/9 151/147/9
f 106/141/5 102/140/5 109/148/5 111/149/5
f 103/47/5 107/142/5 134/145/5 129/146/5
f 110/150/3 111/149/3 123/151/3 148/152/3
f 105/153/2 106/141/2 111/149/2 110/150/2
f 101/143/6 105/153/6 110/150/6 108/154/6
f 102/140/9 101/143/9 108/154/9 109/148/9
f 108/154/3 110/150/3 148/152/3 147/155/3
f 111/149/5 114/156/5 128/157/5 123/151/5
f 111/149/5 109/148/5 113/158/5 114/156/5
f 112/159/1 113/158/1 118/160/1 117/161/1
f 115/162/2 117/161/2 155/163/2 156/164/2
f 113/158/5 109/148/5 116/165/5 118/160/5
f 108/154/6 112/159/6 117/161/6 115/162/6
f 109/148/3 108/154/3 115/162/3 116/165/3
f 119/101/3 115/162/3 156/164/3 158/166/3
f 115/162/6 119/101/6 63/67/6 64/66/6
f 118/160/5 116/165/5 120/102/5 121/167/5
f 118/160/5 121/167/5 142/168/5 137/169/5
f 120/102/5 116/165/5 28/56/5 25/55/5
f 116/165/2 115/162/2 64/66/2 28/56/2
f 126/170/1 149/171/1 150/172/1 128/157/1
f 148/152/2 123/151/2 128/157/2 150/172/2
f 114/156/5 113/158/5 126/170/5 128/157/5
f 113/158/9 112/159/9 149/171/9 126/170/9
f 112/159/9 108/154/9 147/155/9 149/171/9
f 153/173/2 134/145/2 133/144/2 154/174/2
f 151/147/3 129/146/3 134/145/3 153/173/3
f 101/143/9 104/48/9 151/147/9 152/175/9
f 106/141/1 105/153/1 154/174/1 133/144/1
f 105/153/1 101/143/1 152/175/1 154/174/1
f 140/176/9 158/166/9 157/177/9 142/168/9
f 155/163/1 137/169/1 142/168/1 157/177/1
f 121/167/5 120/102/5 140/176/5 142/168/5
f 117/161/2 118/160/2 137/169/2 155/163/2
f 120/102/3 119/101/3 158/166/3 140/176/3
f 88/178/6 85/179/6 143/120/6 144/119/6
f 91/180/6 92/181/6 146/128/6 145/129/6
f 92/181/6 88/178/6 144/119/6 146/128/6
f 85/179/6 91/180/6 145/129/6 143/120/6
f 122/182/6 124/183/6 147/155/6 148/152/6
f 125/184/6 127/185/6 150/172/6 149/171/6
f 127/185/6 122/182/6 148/152/6 150/172/6
f 124/183/6 125/184/6 149/171/6 147/155/6
f 130/186/6 131/187/6 152/175/6 151/147/6
f 132/188/6 135/189/6 153/173/6 154/174/6
f 135/189/6 130/186/6 151/147/6 153/173/6
f 131/187/6 132/188/6 154/174/6 152/175/6
f 136/190/6 138/191/6 156/164/6 155/163/6
f 139/192/6 141/193/6 157/177/6 158/166/6
f 141/193/6 136/190/6 155/163/6 157/177/6
f 138/191/6 139/192/6 158/166/6 156/164/6
