# Blender v3.0.0 OBJ File: 'JTV Utility Car.blend'
# www.blender.org
mtllib JTV Utility Car Rear Door.mtl
o JTV-Rear-Door_Cube.004
v 0.036766 -1.503178 -0.020977
v 0.036766 -1.503178 0.021933
v 1.822859 -1.554986 -0.020977
v 1.822859 -1.554986 0.021933
v 0.178000 1.519108 -0.022698
v 0.178000 1.519108 0.020212
v 1.571604 1.445342 0.021776
v 1.571604 1.445342 -0.021135
v 1.572093 1.059693 -0.021282
v 0.191900 1.124160 -0.022308
v 0.191900 1.124160 0.020602
v 1.572093 1.059693 0.021629
v 1.822613 1.680063 -0.020977
v -0.078811 1.780504 -0.023012
v -0.078811 1.780504 0.019899
v 1.822613 1.680063 0.021934
v -0.047383 0.887610 -0.022458
v 1.819878 0.800393 -0.020977
v -0.047383 0.887610 0.020452
v 1.819878 0.800393 0.021933
vt 0.098958 0.565104
vt 0.098958 0.565104
vt 0.098958 0.565104
vt 0.098958 0.565104
vt 0.098958 0.565104
vt 0.098958 0.565104
vt 0.098958 0.565104
vt 0.098958 0.565104
vt 0.098958 0.565104
vt 0.098958 0.565104
vt 0.098958 0.565104
vt 0.098958 0.565104
vt 0.098958 0.565104
vt 0.098958 0.565104
vt 0.098958 0.565104
vt 0.098958 0.565104
vt 0.098958 0.565104
vt 0.098958 0.565104
vt 0.098958 0.565104
vt 0.098958 0.565104
vn 1.0000 0.0013 0.0000
vn -0.0290 -0.9996 0.0000
vn 0.0528 0.9986 0.0000
vn -0.9994 -0.0352 0.0000
vn 0.0467 0.9989 0.0000
vn -1.0000 -0.0013 0.0000
vn -0.0004 0.0003 1.0000
vn 0.0004 -0.0003 -1.0000
vn 1.0000 -0.0031 0.0000
vn 0.0011 -0.0003 -1.0000
vn -0.0011 0.0003 1.0000
vn 0.0009 -0.0007 -1.0000
vn 0.0009 0.0001 -1.0000
vn -0.0009 0.0007 1.0000
vn -0.0009 -0.0001 1.0000
vn -0.0008 0.0003 1.0000
vn 0.0008 -0.0003 -1.0000
vn 0.9994 0.0352 0.0000
vn -0.0529 -0.9986 0.0000
usemtl Material
s off
f 20/1/1 4/2/1 3/3/1 18/4/1
f 2/5/2 1/6/2 3/3/2 4/2/2
f 16/7/3 13/8/3 14/9/3 15/10/3
f 17/11/4 1/6/4 2/5/4 19/12/4
f 12/13/5 9/14/5 10/15/5 11/16/5
f 7/17/6 8/18/6 9/14/6 12/13/6
f 2/5/7 4/2/7 20/1/7 19/12/7
f 3/3/8 1/6/8 17/11/8 18/4/8
f 14/9/4 17/11/4 19/12/4 15/10/4
f 16/7/9 20/1/9 18/4/9 13/8/9
f 5/19/10 14/9/10 13/8/10 8/18/10
f 7/17/11 16/7/11 15/10/11 6/20/11
f 10/15/12 17/11/12 14/9/12 5/19/12
f 8/18/13 13/8/13 18/4/13 9/14/13
f 6/20/14 15/10/14 19/12/14 11/16/14
f 12/13/15 20/1/15 16/7/15 7/17/15
f 11/16/16 19/12/16 20/1/16 12/13/16
f 9/14/17 18/4/17 17/11/17 10/15/17
f 11/16/18 10/15/18 5/19/18 6/20/18
f 6/20/19 5/19/19 8/18/19 7/17/19
