# Blender v3.0.0 OBJ File: 'JTV Utility Car.blend'
# www.blender.org
mtllib JTV Utility Car Seats.mtl
o JTV-Seats_Cube.001
v -0.115454 -1.454816 1.706003
v -0.115454 -0.337355 1.706003
v -0.115454 -1.454816 0.588542
v -0.115454 -0.337355 0.588542
v 0.105029 -1.454816 1.706003
v 0.105029 -0.619936 1.706003
v 0.105029 -1.454816 0.588542
v 0.105029 -0.619936 0.588542
v -0.115454 -0.126834 1.706003
v -0.115454 -0.126834 0.588542
v 0.153777 -0.409415 0.637291
v 0.153777 -0.409415 1.657254
v -0.115454 1.441526 1.706003
v -0.115454 1.441526 0.588542
v 0.105029 1.441526 0.588542
v 0.105029 1.441526 1.706003
v 1.096448 -0.619936 0.588542
v 1.096448 -0.619936 1.706003
v 1.047699 -0.409415 0.637291
v 1.047699 -0.409415 1.657254
v -0.115454 -1.454816 -1.706003
v -0.115454 -0.337355 -1.706003
v -0.115454 -1.454816 -0.588542
v -0.115454 -0.337355 -0.588542
v 0.105029 -1.454816 -1.706003
v 0.105029 -0.619936 -1.706003
v 0.105029 -1.454816 -0.588542
v 0.105029 -0.619936 -0.588542
v -0.115454 -0.126834 -1.706003
v -0.115454 -0.126834 -0.588542
v 0.153777 -0.409415 -0.637291
v 0.153777 -0.409415 -1.657254
v -0.115454 1.441526 -1.706003
v -0.115454 1.441526 -0.588542
v 0.105029 1.441526 -0.588542
v 0.105029 1.441526 -1.706003
v 1.096448 -0.619936 -0.588542
v 1.096448 -0.619936 -1.706003
v 1.047699 -0.409415 -0.637291
v 1.047699 -0.409415 -1.657254
v -2.115454 -1.454816 1.706003
v -2.115454 -0.337355 1.706003
v -2.115454 -1.454816 0.588542
v -2.115454 -0.337355 0.588542
v -1.894972 -1.454816 1.706003
v -1.894972 -0.619936 1.706003
v -1.894972 -1.454816 0.588542
v -1.894972 -0.619936 0.588542
v -2.115454 -0.126834 1.706003
v -2.115454 -0.126834 0.588542
v -1.846223 -0.409415 0.637291
v -1.846223 -0.409415 1.657254
v -2.115454 1.441526 1.706003
v -2.115454 1.441526 0.588542
v -1.894972 1.441526 0.588542
v -1.894972 1.441526 1.706003
v -0.903553 -0.619936 0.588542
v -0.903553 -0.619936 1.706003
v -0.952301 -0.409415 0.637291
v -0.952301 -0.409415 1.657254
v -2.115454 -1.454816 -1.706003
v -2.115454 -0.337355 -1.706003
v -2.115454 -1.454816 -0.588542
v -2.115454 -0.337355 -0.588542
v -1.894972 -1.454816 -1.706003
v -1.894972 -0.619936 -1.706003
v -1.894972 -1.454816 -0.588542
v -1.894972 -0.619936 -0.588542
v -2.115454 -0.126834 -1.706003
v -2.115454 -0.126834 -0.588542
v -1.846223 -0.409415 -0.637291
v -1.846223 -0.409415 -1.657254
v -2.115454 1.441526 -1.706003
v -2.115454 1.441526 -0.588542
v -1.894972 1.441526 -0.588542
v -1.894972 1.441526 -1.706003
v -0.903553 -0.619936 -0.588542
v -0.903553 -0.619936 -1.706003
v -0.952301 -0.409415 -0.637291
v -0.952301 -0.409415 -1.657254
v 0.105029 -0.409415 0.588542
v 0.105029 -0.409415 1.706003
v 1.096448 -0.409415 0.588542
v 1.096448 -0.409415 1.706003
v 0.105029 -0.409415 -0.588542
v 0.105029 -0.409415 -1.706003
v 1.096448 -0.409415 -0.588542
v 1.096448 -0.409415 -1.706003
v -1.894972 -0.409415 0.588542
v -1.894972 -0.409415 1.706003
v -0.903553 -0.409415 0.588542
v -0.903553 -0.409415 1.706003
v -1.894972 -0.409415 -0.588542
v -1.894972 -0.409415 -1.706003
v -0.903553 -0.409415 -0.588542
v -0.903553 -0.409415 -1.706003
vt 0.101083 0.543405
vt 0.101083 0.543405
vt 0.101083 0.543405
vt 0.101083 0.543405
vt 0.101083 0.543405
vt 0.101083 0.543405
vt 0.101083 0.543405
vt 0.101083 0.543405
vt 0.101083 0.543405
vt 0.101083 0.543405
vt 0.101083 0.543405
vt 0.101083 0.543405
vt 0.101083 0.543405
vt 0.101083 0.543405
vt 0.101083 0.543405
vt 0.101083 0.543405
vt 0.101083 0.543405
vt 0.101083 0.543405
vt 0.101083 0.543405
vt 0.101083 0.543405
vt 0.247835 0.574409
vt 0.247835 0.574409
vt 0.247835 0.574409
vt 0.247835 0.574409
vt 0.101083 0.543405
vt 0.101083 0.543405
vt 0.101083 0.543405
vt 0.101083 0.543405
vt 0.101083 0.543405
vt 0.101083 0.543405
vt 0.101083 0.543405
vt 0.101083 0.543405
vt 0.101083 0.543405
vt 0.101083 0.543405
vt 0.101083 0.543405
vt 0.101083 0.543405
vt 0.101083 0.543405
vt 0.101083 0.543405
vt 0.101083 0.543405
vt 0.101083 0.543405
vt 0.101083 0.543405
vt 0.101083 0.543405
vt 0.101083 0.543405
vt 0.101083 0.543405
vt 0.247835 0.574409
vt 0.247835 0.574409
vt 0.247835 0.574409
vt 0.247835 0.574409
vt 0.101083 0.543405
vt 0.101083 0.543405
vt 0.101083 0.543405
vt 0.101083 0.543405
vt 0.101083 0.543405
vt 0.101083 0.543405
vt 0.101083 0.543405
vt 0.101083 0.543405
vt 0.101083 0.543405
vt 0.101083 0.543405
vt 0.101083 0.543405
vt 0.101083 0.543405
vt 0.101083 0.543405
vt 0.101083 0.543405
vt 0.101083 0.543405
vt 0.101083 0.543405
vt 0.101083 0.543405
vt 0.101083 0.543405
vt 0.101083 0.543405
vt 0.101083 0.543405
vt 0.247835 0.574409
vt 0.247835 0.574409
vt 0.247835 0.574409
vt 0.247835 0.574409
vt 0.101083 0.543405
vt 0.101083 0.543405
vt 0.101083 0.543405
vt 0.101083 0.543405
vt 0.101083 0.543405
vt 0.101083 0.543405
vt 0.101083 0.543405
vt 0.101083 0.543405
vt 0.101083 0.543405
vt 0.101083 0.543405
vt 0.101083 0.543405
vt 0.101083 0.543405
vt 0.101083 0.543405
vt 0.101083 0.543405
vt 0.101083 0.543405
vt 0.101083 0.543405
vt 0.101083 0.543405
vt 0.101083 0.543405
vt 0.101083 0.543405
vt 0.101083 0.543405
vt 0.247835 0.574409
vt 0.247835 0.574409
vt 0.247835 0.574409
vt 0.247835 0.574409
vt 0.101083 0.543406
vt 0.101083 0.543406
vt 0.101083 0.543406
vt 0.101083 0.543405
vt 0.101083 0.543406
vt 0.101083 0.543406
vt 0.101083 0.543405
vt 0.101083 0.543405
vt 0.101083 0.543406
vt 0.101083 0.543406
vt 0.101083 0.543406
vt 0.101083 0.543405
vt 0.101083 0.543406
vt 0.101083 0.543406
vt 0.101083 0.543405
vt 0.101083 0.543405
vn -1.0000 0.0000 0.0000
vn -0.0000 0.0000 -1.0000
vn 1.0000 0.0000 0.0000
vn 0.0000 0.0000 1.0000
vn 0.0000 -1.0000 0.0000
vn 0.0000 1.0000 0.0000
usemtl Material
s off
f 1/1/1 2/2/1 4/3/1 3/4/1
f 3/4/2 4/3/2 8/5/2 7/6/2
f 7/6/3 8/5/3 6/7/3 5/8/3
f 5/8/4 6/7/4 2/2/4 1/1/4
f 3/4/5 7/6/5 5/8/5 1/1/5
f 4/3/1 2/2/1 9/9/1 10/10/1
f 9/9/4 82/11/4 16/12/4 13/13/4
f 2/2/4 6/7/4 82/11/4 9/9/4
f 8/5/2 4/3/2 10/10/2 81/14/2
f 82/11/4 6/7/4 18/15/4 84/16/4
f 15/17/6 14/18/6 13/13/6 16/12/6
f 81/14/2 10/10/2 14/18/2 15/17/2
f 82/11/3 81/14/3 15/17/3 16/12/3
f 10/10/1 9/9/1 13/13/1 14/18/1
f 18/15/3 17/19/3 83/20/3 84/16/3
f 11/21/6 12/22/6 20/23/6 19/24/6
f 6/7/5 8/5/5 17/19/5 18/15/5
f 8/5/2 81/14/2 83/20/2 17/19/2
f 21/25/1 23/26/1 24/27/1 22/28/1
f 23/26/4 27/29/4 28/30/4 24/27/4
f 27/29/3 25/31/3 26/32/3 28/30/3
f 25/31/2 21/25/2 22/28/2 26/32/2
f 23/26/5 21/25/5 25/31/5 27/29/5
f 24/27/1 30/33/1 29/34/1 22/28/1
f 29/34/2 33/35/2 36/36/2 86/37/2
f 22/28/2 29/34/2 86/37/2 26/32/2
f 28/30/4 85/38/4 30/33/4 24/27/4
f 86/37/2 88/39/2 38/40/2 26/32/2
f 35/41/6 36/36/6 33/35/6 34/42/6
f 85/38/4 35/41/4 34/42/4 30/33/4
f 86/37/3 36/36/3 35/41/3 85/38/3
f 30/33/1 34/42/1 33/35/1 29/34/1
f 38/40/3 88/39/3 87/43/3 37/44/3
f 31/45/6 39/46/6 40/47/6 32/48/6
f 26/32/5 38/40/5 37/44/5 28/30/5
f 28/30/4 37/44/4 87/43/4 85/38/4
f 41/49/1 42/50/1 44/51/1 43/52/1
f 43/52/2 44/51/2 48/53/2 47/54/2
f 47/54/3 48/53/3 46/55/3 45/56/3
f 45/56/4 46/55/4 42/50/4 41/49/4
f 43/52/5 47/54/5 45/56/5 41/49/5
f 44/51/1 42/50/1 49/57/1 50/58/1
f 49/57/4 90/59/4 56/60/4 53/61/4
f 42/50/4 46/55/4 90/59/4 49/57/4
f 48/53/2 44/51/2 50/58/2 89/62/2
f 90/59/4 46/55/4 58/63/4 92/64/4
f 55/65/6 54/66/6 53/61/6 56/60/6
f 89/62/2 50/58/2 54/66/2 55/65/2
f 90/59/3 89/62/3 55/65/3 56/60/3
f 50/58/1 49/57/1 53/61/1 54/66/1
f 58/63/3 57/67/3 91/68/3 92/64/3
f 51/69/6 52/70/6 60/71/6 59/72/6
f 46/55/5 48/53/5 57/67/5 58/63/5
f 48/53/2 89/62/2 91/68/2 57/67/2
f 61/73/1 63/74/1 64/75/1 62/76/1
f 63/74/4 67/77/4 68/78/4 64/75/4
f 67/77/3 65/79/3 66/80/3 68/78/3
f 65/79/2 61/73/2 62/76/2 66/80/2
f 63/74/5 61/73/5 65/79/5 67/77/5
f 64/75/1 70/81/1 69/82/1 62/76/1
f 69/82/2 73/83/2 76/84/2 94/85/2
f 62/76/2 69/82/2 94/85/2 66/80/2
f 68/78/4 93/86/4 70/81/4 64/75/4
f 94/85/2 96/87/2 78/88/2 66/80/2
f 75/89/6 76/84/6 73/83/6 74/90/6
f 93/86/4 75/89/4 74/90/4 70/81/4
f 94/85/3 76/84/3 75/89/3 93/86/3
f 70/81/1 74/90/1 73/83/1 69/82/1
f 78/88/3 96/87/3 95/91/3 77/92/3
f 71/93/6 79/94/6 80/95/6 72/96/6
f 66/80/5 78/88/5 77/92/5 68/78/5
f 68/78/4 77/92/4 95/91/4 93/86/4
f 12/97/6 11/98/6 81/14/6 82/11/6
f 19/99/6 20/100/6 84/16/6 83/20/6
f 20/100/6 12/97/6 82/11/6 84/16/6
f 11/98/6 19/99/6 83/20/6 81/14/6
f 31/101/6 32/102/6 86/37/6 85/38/6
f 40/103/6 39/104/6 87/43/6 88/39/6
f 32/102/6 40/103/6 88/39/6 86/37/6
f 39/104/6 31/101/6 85/38/6 87/43/6
f 52/105/6 51/106/6 89/62/6 90/59/6
f 59/107/6 60/108/6 92/64/6 91/68/6
f 60/108/6 52/105/6 90/59/6 92/64/6
f 51/106/6 59/107/6 91/68/6 89/62/6
f 71/109/6 72/110/6 94/85/6 93/86/6
f 80/111/6 79/112/6 95/91/6 96/87/6
f 72/110/6 80/111/6 96/87/6 94/85/6
f 79/112/6 71/109/6 93/86/6 95/91/6
