# Blender v3.0.0 OBJ File: 'JTV Utility Car.blend'
# www.blender.org
mtllib JTV Utility Car Gun.mtl
o JTV-Gun_Cylinder.002
v -0.444544 -0.179097 0.176635
v -0.444544 0.174174 0.176635
v -0.444544 -0.179097 -0.176636
v -0.444544 0.174174 -0.176636
v 1.530667 -0.097524 0.095062
v 1.530667 0.092600 0.095062
v 1.530667 -0.097524 -0.095063
v 1.530667 0.092600 -0.095063
v -0.444544 -0.306713 -0.304252
v -0.444544 -0.306713 0.304251
v -0.444544 0.301790 0.304251
v -0.444544 0.301790 -0.304252
v -0.638011 -0.306713 -0.304252
v -0.638011 -0.306713 0.304251
v -0.638011 0.301790 0.304251
v -0.638011 0.301790 -0.304252
v -1.034731 -0.179097 -0.176636
v -1.034731 -0.179097 0.176635
v -1.034731 0.174174 0.176635
v -1.034731 0.174174 -0.176636
v -0.947991 0.301790 0.304251
v -1.034731 0.215049 0.217510
v -0.947991 -0.306713 0.304251
v -1.034731 -0.219972 0.217510
v -1.034731 -0.219972 -0.217511
v -0.947991 -0.306713 -0.304252
v -0.947991 0.301790 -0.304252
v -1.034731 0.215049 -0.217511
v 1.530667 0.174174 -0.176636
v 1.530667 -0.179097 -0.176636
v 1.530667 -0.179097 0.176635
v 1.530667 0.174174 0.176635
v 1.530667 -0.002462 -0.134439
v 1.530667 -0.136900 -0.000000
v 1.530667 0.131976 -0.000001
v 1.530667 -0.002462 0.134438
v 3.179723 -0.002462 -0.090505
v 3.179723 -0.066458 -0.063997
v 3.179723 -0.092967 -0.000001
v 3.179723 0.088043 -0.000001
v 3.179723 0.061535 0.063996
v 3.179723 -0.002462 0.090504
v 3.179723 -0.066458 0.063996
v 3.179723 0.061535 -0.063997
v 3.179723 -0.002462 -0.134439
v 3.179723 -0.097524 -0.095063
v 3.179723 -0.136900 -0.000000
v 3.179723 0.131976 -0.000001
v 3.179723 0.092600 0.095062
v 3.179723 -0.002462 0.134438
v 3.179723 -0.097524 0.095062
v 3.179723 0.092600 -0.095063
v 1.907551 -0.002462 -0.000001
v 1.907551 -0.002462 0.090504
v 1.907551 -0.002462 -0.090505
v 1.907551 -0.092967 -0.000001
v 1.907551 0.088043 -0.000001
v 1.907551 -0.066458 -0.063997
v 1.907551 0.061535 0.063996
v 1.907551 -0.066458 0.063996
v 1.907551 0.061535 -0.063997
vt 0.424479 0.572917
vt 0.424479 0.572917
vt 0.424479 0.572917
vt 0.424479 0.572917
vt 0.080729 0.583333
vt 0.080729 0.583333
vt 0.080729 0.583333
vt 0.080729 0.583333
vt 0.424479 0.572917
vt 0.424479 0.572917
vt 0.424479 0.572917
vt 0.424479 0.572917
vt 0.924676 0.761007
vt 0.924676 0.761007
vt 0.924676 0.761007
vt 0.924676 0.761007
vt 0.424479 0.572917
vt 0.424479 0.572917
vt 0.424479 0.572917
vt 0.424479 0.572917
vt 0.924676 0.761007
vt 0.924676 0.761007
vt 0.424479 0.572917
vt 0.424479 0.572917
vt 0.424479 0.572917
vt 0.424479 0.572917
vt 0.924676 0.761007
vt 0.924676 0.761007
vt 0.424479 0.572917
vt 0.424479 0.572917
vt 0.424479 0.572917
vt 0.424479 0.572917
vt 0.424479 0.572917
vt 0.424479 0.572917
vt 0.424479 0.572917
vt 0.424479 0.572917
vt 0.424479 0.572917
vt 0.424479 0.572917
vt 0.424479 0.572917
vt 0.424479 0.572917
vt 0.424479 0.572917
vt 0.424479 0.572917
vt 0.424479 0.572917
vt 0.424479 0.572917
vt 0.080729 0.583333
vt 0.080729 0.583333
vt 0.080729 0.583333
vt 0.080729 0.583333
vt 0.080729 0.583333
vt 0.080729 0.583333
vt 0.080729 0.583333
vt 0.080729 0.583333
vt 0.080729 0.583333
vt 0.080729 0.583333
vt 0.080729 0.583333
vt 0.080729 0.583333
vt 0.080729 0.583333
vt 0.080729 0.583333
vt 0.080729 0.583333
vt 0.080729 0.583333
vt 0.080729 0.583333
vt 0.080729 0.583333
vt 0.080729 0.583333
vt 0.080729 0.583333
vt 0.080729 0.583333
vt 0.080729 0.583333
vt 0.080729 0.583333
vt 0.080729 0.583333
vt 0.080729 0.583333
vt 0.080729 0.583333
vt 0.080729 0.583333
vt 0.080729 0.583333
vt 0.080729 0.583333
vn 0.0000 0.0000 -1.0000
vn 0.0000 0.3827 0.9239
vn 0.0000 0.0000 1.0000
vn 0.0000 -1.0000 0.0000
vn 0.0000 1.0000 0.0000
vn -1.0000 0.0000 0.0000
vn 1.0000 0.0000 0.0000
vn -0.7071 -0.7071 0.0000
vn -0.7071 0.0000 0.7071
vn -0.7071 0.7071 0.0000
vn -0.7071 0.0000 -0.7071
vn 0.0000 0.9239 0.3827
vn 0.0000 0.3827 -0.9239
vn 0.0000 0.9239 -0.3827
vn 0.0000 -0.9239 -0.3827
vn 0.0000 -0.3827 0.9239
vn 0.0000 -0.9239 0.3827
vn 0.0000 -0.3827 -0.9239
usemtl Material
s off
f 3/1/1 4/2/1 29/3/1 30/4/1
f 6/5/2 36/6/2 50/7/2 49/8/2
f 31/9/3 32/10/3 2/11/3 1/12/3
f 3/1/4 30/4/4 31/9/4 1/12/4
f 29/3/5 4/2/5 2/11/5 32/10/5
f 19/13/6 18/14/6 24/15/6 22/16/6
f 3/1/7 1/12/7 10/17/7 9/18/7
f 2/11/7 4/2/7 12/19/7 11/20/7
f 20/21/6 19/13/6 22/16/6 28/22/6
f 11/20/5 12/19/5 16/23/5 15/24/5
f 9/18/4 10/17/4 14/25/4 13/26/4
f 12/19/1 9/18/1 13/26/1 16/23/1
f 10/17/3 11/20/3 15/24/3 14/25/3
f 4/2/7 3/1/7 9/18/7 12/19/7
f 17/27/6 20/21/6 28/22/6 25/28/6
f 1/12/7 2/11/7 11/20/7 10/17/7
f 18/14/6 17/27/6 25/28/6 24/15/6
f 15/24/5 16/23/5 27/29/5 21/30/5
f 18/14/6 19/13/6 20/21/6 17/27/6
f 13/26/4 14/25/4 23/31/4 26/32/4
f 16/23/1 13/26/1 26/32/1 27/29/1
f 26/32/8 23/31/8 24/33/8 25/34/8
f 23/31/9 21/30/9 22/35/9 24/33/9
f 21/30/10 27/29/10 28/36/10 22/35/10
f 27/29/11 26/32/11 25/34/11 28/36/11
f 14/25/3 15/24/3 21/30/3 23/31/3
f 8/37/7 33/38/7 7/39/7 30/4/7 29/3/7
f 7/39/7 34/40/7 5/41/7 31/9/7 30/4/7
f 6/42/7 35/43/7 8/37/7 29/3/7 32/10/7
f 5/41/7 36/44/7 6/42/7 32/10/7 31/9/7
f 35/45/12 6/5/12 49/8/12 48/46/12
f 33/47/13 8/48/13 52/49/13 45/50/13
f 8/48/14 35/45/14 48/46/14 52/49/14
f 38/51/2 37/52/2 55/53/2 58/54/2
f 40/55/15 41/56/15 59/57/15 57/58/15
f 37/52/16 44/59/16 61/60/16 55/53/16
f 44/59/17 40/55/17 57/58/17 61/60/17
f 7/61/18 33/47/18 45/50/18 46/62/18
f 5/63/17 34/64/17 47/65/17 51/66/17
f 36/6/16 5/63/16 51/66/16 50/7/16
f 34/64/15 7/61/15 46/62/15 47/65/15
f 37/52/7 38/51/7 46/62/7 45/50/7
f 38/51/7 39/67/7 47/65/7 46/62/7
f 41/56/7 40/55/7 48/46/7 49/8/7
f 43/68/7 42/69/7 50/7/7 51/66/7
f 44/59/7 37/52/7 45/50/7 52/49/7
f 39/67/7 43/68/7 51/66/7 47/65/7
f 40/55/7 44/59/7 52/49/7 48/46/7
f 42/69/7 41/56/7 49/8/7 50/7/7
f 53/70/7 57/58/7 59/57/7 54/71/7
f 56/72/7 53/70/7 54/71/7 60/73/7
f 58/54/7 55/53/7 53/70/7 56/72/7
f 55/53/7 61/60/7 57/58/7 53/70/7
f 41/56/18 42/69/18 54/71/18 59/57/18
f 43/68/14 39/67/14 56/72/14 60/73/14
f 42/69/13 43/68/13 60/73/13 54/71/13
f 39/67/12 38/51/12 58/54/12 56/72/12
