# Blender v3.2.0 OBJ File: 'Props.blend'
# www.blender.org
mtllib ConcreteBarrier.mtl
o ConcreteBarrier_Cube.006
v -0.405166 -1.955316 1.786953
v -0.173295 -1.513113 1.786953
v -0.405166 -1.955316 -1.786953
v -0.173295 -1.513113 -1.786953
v 0.405166 -1.955316 1.786953
v 0.173295 -1.513113 1.786953
v 0.405166 -1.955316 -1.786953
v 0.173295 -1.513113 -1.786953
v -0.405166 -1.955316 0.000000
v -0.173295 -1.513113 0.000000
v 0.405166 -1.955316 0.000000
v 0.173295 -1.513113 0.000000
v -0.173295 2.414188 0.000000
v 0.173295 2.414188 0.000000
v -0.173295 0.450538 1.786953
v -0.173295 0.450538 -1.786953
v 0.173295 0.450538 1.786953
v 0.173295 0.450538 -1.786953
v 0.173295 0.450538 0.000000
v -0.173295 0.450538 0.000000
v -0.173295 -0.531288 -1.786953
v 0.173295 -0.531288 -1.786953
v -0.173295 -0.531288 1.786953
v 0.173295 -0.531288 1.786953
v 0.173295 -0.531288 0.000000
v -0.173295 -0.531288 0.000000
v -0.173295 1.432363 1.786953
v 0.173295 1.432363 1.786953
v 0.173295 1.432363 0.000000
v -0.173295 1.432363 0.000000
v -0.173295 1.432363 -1.786953
v 0.173295 1.432363 -1.786953
v -0.173295 1.600316 0.167953
v -0.173295 1.600316 1.619000
v -0.173295 2.246235 1.619000
v -0.173295 2.246235 0.167953
v 0.173295 1.600316 -0.167953
v 0.173295 1.600316 -1.619000
v 0.173295 2.246235 -1.619000
v 0.173295 2.246235 -0.167953
v 0.173295 1.600316 1.619000
v 0.173295 1.600316 0.167953
v 0.173295 2.246235 0.167953
v 0.173295 2.246235 1.619000
v -0.173295 1.600316 -1.619000
v -0.173295 1.600316 -0.167953
v -0.173295 2.246235 -0.167953
v -0.173295 2.246235 -1.619000
v -0.173295 -0.363335 -1.619000
v -0.173295 -0.363335 -0.167953
v -0.173295 0.282585 -0.167953
v -0.173295 0.282585 -1.619000
v 0.173295 -0.363335 1.619000
v 0.173295 -0.363335 0.167953
v 0.173295 0.282585 0.167953
v 0.173295 0.282585 1.619000
v 0.173295 -0.363335 -0.167953
v 0.173295 -0.363335 -1.619000
v 0.173295 0.282585 -1.619000
v 0.173295 0.282585 -0.167953
v -0.173295 -0.363335 0.167953
v -0.173295 -0.363335 1.619000
v -0.173295 0.282585 1.619000
v -0.173295 0.282585 0.167953
v -0.173295 -1.345160 0.167953
v -0.173295 -1.345160 1.619000
v -0.173295 -0.699240 1.619000
v -0.173295 -0.699240 0.167953
v 0.173295 -1.345160 -0.167953
v 0.173295 -1.345160 -1.619000
v 0.173295 -0.699240 -1.619000
v 0.173295 -0.699240 -0.167953
v 0.173295 -1.345160 1.619000
v 0.173295 -1.345160 0.167953
v 0.173295 -0.699240 0.167953
v 0.173295 -0.699240 1.619000
v -0.173295 -1.345160 -1.619000
v -0.173295 -1.345160 -0.167953
v -0.173295 -0.699240 -0.167953
v -0.173295 -0.699240 -1.619000
v -0.173295 0.618490 -1.619000
v -0.173295 0.618490 -0.167953
v -0.173295 1.264410 -0.167953
v -0.173295 1.264410 -1.619000
v 0.173295 0.618490 1.619000
v 0.173295 0.618490 0.167953
v 0.173295 1.264410 0.167953
v 0.173295 1.264410 1.619000
v 0.173295 0.618490 -0.167953
v 0.173295 0.618490 -1.619000
v 0.173295 1.264410 -1.619000
v 0.173295 1.264410 -0.167953
v -0.173295 0.618490 0.167953
v -0.173295 0.618490 1.619000
v -0.173295 1.264410 1.619000
v -0.173295 1.264410 0.167953
v -0.091734 1.600316 1.619000
v -0.091734 1.600316 0.167953
v -0.091734 2.246235 0.167953
v -0.091734 2.246235 1.619000
v 0.091734 1.600316 -1.619000
v 0.091734 1.600316 -0.167953
v 0.091734 2.246235 -0.167953
v 0.091734 2.246235 -1.619000
v 0.091734 1.600316 0.167953
v 0.091734 1.600316 1.619000
v 0.091734 2.246235 1.619000
v 0.091734 2.246235 0.167953
v -0.091734 1.600316 -0.167953
v -0.091734 1.600316 -1.619000
v -0.091734 2.246235 -1.619000
v -0.091734 2.246235 -0.167953
v -0.091734 -0.363335 -0.167953
v -0.091734 -0.363335 -1.619000
v -0.091734 0.282585 -1.619000
v -0.091734 0.282585 -0.167953
v 0.091734 -0.363335 0.167953
v 0.091734 -0.363335 1.619000
v 0.091734 0.282585 1.619000
v 0.091734 0.282585 0.167953
v 0.091734 -0.363335 -1.619000
v 0.091734 -0.363335 -0.167953
v 0.091734 0.282585 -0.167953
v 0.091734 0.282585 -1.619000
v -0.091734 -0.363335 1.619000
v -0.091734 -0.363335 0.167953
v -0.091734 0.282585 0.167953
v -0.091734 0.282585 1.619000
v -0.091734 -1.345160 1.619000
v -0.091734 -1.345160 0.167953
v -0.091734 -0.699240 0.167953
v -0.091734 -0.699240 1.619000
v 0.091734 -1.345160 -1.619000
v 0.091734 -1.345160 -0.167953
v 0.091734 -0.699240 -0.167953
v 0.091734 -0.699240 -1.619000
v 0.091734 -1.345160 0.167953
v 0.091734 -1.345160 1.619000
v 0.091734 -0.699240 1.619000
v 0.091734 -0.699240 0.167953
v -0.091734 -1.345160 -0.167953
v -0.091734 -1.345160 -1.619000
v -0.091734 -0.699240 -1.619000
v -0.091734 -0.699240 -0.167953
v -0.091734 0.618490 -0.167953
v -0.091734 0.618490 -1.619000
v -0.091734 1.264410 -1.619000
v -0.091734 1.264410 -0.167953
v 0.091734 0.618490 0.167953
v 0.091734 0.618490 1.619000
v 0.091734 1.264410 1.619000
v 0.091734 1.264410 0.167953
v 0.091734 0.618490 -1.619000
v 0.091734 0.618490 -0.167953
v 0.091734 1.264410 -0.167953
v 0.091734 1.264410 -1.619000
v -0.091734 0.618490 1.619000
v -0.091734 0.618490 0.167953
v -0.091734 1.264410 0.167953
v -0.091734 1.264410 1.619000
v -0.173295 2.228051 1.786953
v -0.173295 2.414188 1.600816
v -0.173295 2.282569 1.655334
v -0.173295 2.414188 -1.600816
v -0.173295 2.228051 -1.786953
v -0.173295 2.282569 -1.655334
v 0.173295 2.228051 -1.786953
v 0.173295 2.414188 -1.600816
v 0.173295 2.282569 -1.655334
v 0.173295 2.414188 1.600816
v 0.173295 2.228051 1.786953
v 0.173295 2.282569 1.655334
vt 0.085358 0.940480
vt 0.085358 0.940480
vt 0.085358 0.940480
vt 0.085358 0.940480
vt 0.085358 0.940480
vt 0.085358 0.940480
vt 0.085358 0.940480
vt 0.085358 0.940480
vt 0.085358 0.940480
vt 0.085358 0.940480
vt 0.085358 0.940480
vt 0.085358 0.940480
vt 0.085358 0.940480
vt 0.085358 0.940480
vt 0.085358 0.940480
vt 0.085358 0.940480
vt 0.085358 0.940480
vt 0.085358 0.940480
vt 0.085358 0.940480
vt 0.085358 0.940480
vt 0.085358 0.940480
vt 0.085358 0.940480
vt 0.085358 0.940480
vt 0.085358 0.940480
vt 0.085358 0.940480
vt 0.085358 0.940480
vt 0.085358 0.940480
vt 0.085358 0.940480
vt 0.085358 0.940480
vt 0.085358 0.940480
vt 0.085358 0.940480
vt 0.085358 0.940480
vt 0.085358 0.940480
vt 0.085358 0.940480
vt 0.085358 0.940480
vt 0.085358 0.940480
vt 0.085358 0.940480
vt 0.085358 0.940480
vt 0.085358 0.940480
vt 0.085358 0.940480
vt 0.085358 0.940480
vt 0.085358 0.940480
vt 0.085358 0.940480
vt 0.085358 0.940480
vt 0.085358 0.940480
vt 0.085358 0.940480
vt 0.085358 0.940480
vt 0.085358 0.940480
vt 0.085358 0.940480
vt 0.085358 0.940480
vt 0.085358 0.940480
vt 0.085358 0.940480
vt 0.085358 0.940480
vt 0.085358 0.940480
vt 0.085358 0.940480
vt 0.085358 0.940480
vt 0.085358 0.940480
vt 0.085358 0.940480
vt 0.085358 0.940480
vt 0.085358 0.940480
vt 0.085358 0.940480
vt 0.085358 0.940480
vt 0.085358 0.940480
vt 0.085358 0.940480
vt 0.085358 0.940480
vt 0.085358 0.940480
vt 0.085358 0.940480
vt 0.085358 0.940480
vt 0.085358 0.940480
vt 0.085358 0.940480
vt 0.085358 0.940480
vt 0.085358 0.940480
vt 0.085358 0.940480
vt 0.085358 0.940480
vt 0.085358 0.940480
vt 0.085358 0.940480
vt 0.085358 0.940480
vt 0.085358 0.940480
vt 0.085358 0.940480
vt 0.085358 0.940480
vt 0.085358 0.940480
vt 0.085358 0.940480
vt 0.085358 0.940480
vt 0.085358 0.940480
vt 0.085358 0.940480
vt 0.085358 0.940480
vt 0.085358 0.940480
vt 0.085358 0.940480
vt 0.085358 0.940480
vt 0.085358 0.940480
vt 0.085358 0.940480
vt 0.085358 0.940480
vt 0.085358 0.940480
vt 0.085358 0.940480
vt 0.085358 0.940480
vt 0.085358 0.940480
vt 0.085358 0.940480
vt 0.085358 0.940480
vt 0.085358 0.940480
vt 0.085358 0.940480
vt 0.085358 0.940480
vt 0.085358 0.940480
vt 0.085358 0.940480
vt 0.085358 0.940480
vt 0.085358 0.940480
vt 0.085358 0.940480
vt 0.085358 0.940480
vt 0.085358 0.940480
vt 0.085358 0.940480
vt 0.085358 0.940480
vt 0.085358 0.940480
vt 0.085358 0.940480
vt 0.085358 0.940480
vt 0.085358 0.940480
vt 0.085358 0.940480
vt 0.085358 0.940480
vt 0.085358 0.940480
vt 0.085358 0.940480
vt 0.085358 0.940480
vt 0.085358 0.940480
vt 0.085358 0.940480
vt 0.085358 0.940480
vt 0.085358 0.940480
vt 0.085358 0.940480
vt 0.085358 0.940480
vt 0.085358 0.940480
vt 0.085358 0.940480
vt 0.085358 0.940480
vt 0.038603 0.960166
vt 0.038603 0.960166
vt 0.038603 0.960166
vt 0.038603 0.960166
vt 0.038603 0.960166
vt 0.038603 0.960166
vt 0.038603 0.960166
vt 0.038603 0.960166
vt 0.038603 0.960166
vt 0.038603 0.960166
vt 0.038603 0.960166
vt 0.038603 0.960166
vt 0.038603 0.960166
vt 0.038603 0.960166
vt 0.038603 0.960166
vt 0.038603 0.960166
vt 0.038603 0.960166
vt 0.038603 0.960166
vt 0.038603 0.960166
vt 0.038603 0.960166
vt 0.038603 0.960166
vt 0.038603 0.960166
vt 0.038603 0.960166
vt 0.038603 0.960166
vt 0.038603 0.960166
vt 0.038603 0.960166
vt 0.038603 0.960166
vt 0.038603 0.960166
vt 0.038603 0.960166
vt 0.038603 0.960166
vt 0.038603 0.960166
vt 0.038603 0.960166
vt 0.038603 0.960166
vt 0.038603 0.960166
vt 0.038603 0.960166
vt 0.038603 0.960166
vt 0.038603 0.960166
vt 0.038603 0.960166
vt 0.038603 0.960166
vt 0.038603 0.960166
vt 0.038603 0.960166
vt 0.038603 0.960166
vt 0.038603 0.960166
vt 0.038603 0.960166
vt 0.038603 0.960166
vt 0.038603 0.960166
vt 0.038603 0.960166
vt 0.038603 0.960166
vt 0.038603 0.960166
vt 0.038603 0.960166
vt 0.038603 0.960166
vt 0.038603 0.960166
vt 0.038603 0.960166
vt 0.038603 0.960166
vt 0.038603 0.960166
vt 0.038603 0.960166
vt 0.038603 0.960166
vt 0.038603 0.960166
vt 0.038603 0.960166
vt 0.038603 0.960166
vt 0.038603 0.960166
vt 0.038603 0.960166
vt 0.038603 0.960166
vt 0.038603 0.960166
vt 0.085358 0.940480
vt 0.085358 0.940480
vt 0.085358 0.940480
vt 0.085358 0.940480
vt 0.085358 0.940480
vt 0.085358 0.940480
vt 0.085358 0.940480
vt 0.085358 0.940480
vt 0.085358 0.940480
vt 0.085358 0.940480
vt 0.085358 0.940480
vt 0.085358 0.940480
vt 0.085358 0.940480
vt 0.085358 0.940480
vt 0.085358 0.940480
vt 0.085358 0.940480
vt 0.085358 0.940480
vt 0.085358 0.940480
vt 0.085358 0.940480
vt 0.085358 0.940480
vt 0.085358 0.940480
vt 0.085358 0.940480
vt 0.085358 0.940480
vt 0.085358 0.940480
vt 0.085358 0.940480
vt 0.085358 0.940480
vt 0.085358 0.940480
vt 0.085358 0.940480
vt 0.085358 0.940480
vt 0.085358 0.940480
vt 0.085358 0.940480
vt 0.085358 0.940480
vt 0.085358 0.940480
vt 0.085358 0.940480
vt 0.085358 0.940480
vt 0.085358 0.940480
vt 0.085358 0.940480
vt 0.085358 0.940480
vt 0.085358 0.940480
vt 0.085358 0.940480
vt 0.085358 0.940480
vt 0.085358 0.940480
vt 0.085358 0.940480
vt 0.085358 0.940480
vn -0.8557 -0.5175 0.0000
vn -0.9710 0.2391 0.0000
vn -0.6252 0.1540 -0.7651
vn -0.7112 -0.4301 -0.5561
vn 0.6252 0.1540 -0.7651
vn 0.7112 -0.4301 -0.5561
vn 0.8557 -0.5175 0.0000
vn 0.9710 0.2391 0.0000
vn 0.6252 0.1540 0.7651
vn 0.7112 -0.4301 0.5561
vn -0.6252 0.1540 0.7651
vn -0.7112 -0.4301 0.5561
vn 0.9045 0.3015 -0.3015
vn 0.9045 0.3015 0.3015
vn 0.5774 0.5774 0.5774
vn 0.5774 0.5774 -0.5774
vn -0.7071 0.7071 0.0000
vn -0.6303 0.7173 -0.2971
vn -1.0000 0.0000 0.0000
vn -0.9045 -0.3015 0.3015
vn -0.9045 -0.3015 -0.3015
vn -0.6303 0.7173 0.2971
vn -0.6303 0.2971 -0.7173
vn -0.7071 0.0000 -0.7071
vn -0.9045 0.3015 0.3015
vn -0.9045 0.3015 -0.3015
vn -0.5774 -0.5774 -0.5774
vn -0.5774 0.5774 -0.5774
vn 0.9045 -0.3015 0.3015
vn 0.9045 -0.3015 -0.3015
vn 0.5774 -0.5774 -0.5774
vn 0.5774 -0.5774 0.5774
vn 0.7071 -0.0000 -0.7071
vn 0.6303 0.2971 -0.7173
vn -0.5774 0.5774 0.5774
vn -0.5774 -0.5774 0.5774
vn -0.7071 0.0000 0.7071
vn 0.7071 -0.0000 0.7071
vn 0.7071 0.7071 0.0000
vn 0.6303 0.7173 0.2971
vn -0.6303 0.2971 0.7173
vn 1.0000 0.0000 0.0000
vn 0.6303 0.2971 0.7173
vn 0.6303 0.7173 -0.2971
usemtl Material
s 1
f 9/1/1 10/2/2 4/3/3 3/4/4
f 3/4/4 4/3/3 8/5/5 7/6/6
f 11/7/7 12/8/8 6/9/9 5/10/10
f 5/10/10 6/9/9 2/11/11 1/12/12
f 9/1/1 11/7/7 5/10/10 1/12/12
f 69/13/13 70/14/14 133/15/15 134/16/16
f 13/17/17 164/18/18 166/19/19 48/20/20 47/21/21
f 163/22/19 162/23/22 13/17/17 36/24/20 35/25/21
f 166/19/19 165/26/23 31/27/24 45/28/25 48/20/20
f 82/29/26 83/30/21 148/31/27 145/32/28
f 43/33/29 44/34/30 107/35/31 108/36/32
f 32/37/33 31/27/24 165/26/23 167/38/34
f 84/39/20 81/40/25 146/41/35 147/42/36
f 3/4/4 7/6/6 11/7/7 9/1/1
f 7/6/6 8/5/5 12/8/8 11/7/7
f 1/12/12 2/11/11 10/2/2 9/1/1
f 95/43/21 96/44/20 159/45/36 160/46/27
f 42/47/14 43/33/29 108/36/32 105/48/15
f 81/40/25 82/29/26 145/32/28 146/41/35
f 22/49/33 21/50/24 16/51/24 18/52/33
f 23/53/37 24/54/38 17/55/38 15/56/37
f 94/57/26 95/43/21 160/46/27 157/58/28
f 44/34/30 41/59/13 106/60/16 107/35/31
f 2/11/11 6/9/9 24/54/38 23/53/37
f 8/5/5 4/3/3 21/50/24 22/49/33
f 55/61/29 56/62/30 119/63/31 120/64/32
f 96/44/20 93/65/25 158/66/35 159/45/36
f 41/59/13 42/47/14 105/48/15 106/60/16
f 54/67/14 55/61/29 120/64/32 117/68/15
f 93/65/25 94/57/26 157/58/28 158/66/35
f 56/62/30 53/69/13 118/70/16 119/63/31
f 18/52/33 16/51/24 31/27/24 32/37/33
f 15/56/37 17/55/38 28/71/38 27/72/37
f 67/73/21 68/74/20 131/75/36 132/76/27
f 30/77/19 27/72/37 34/78/26 33/79/25
f 14/80/39 13/17/17 162/23/22 170/81/40
f 27/72/37 161/82/41 163/22/19 35/25/21 34/78/26
f 13/17/17 30/77/19 33/79/25 36/24/20
f 29/83/42 32/37/33 38/84/14 37/85/13
f 14/80/39 170/81/40 172/86/42 44/34/30 43/33/29
f 32/37/33 167/38/34 169/87/42 39/88/29 38/84/14
f 14/80/39 29/83/42 37/85/13 40/89/30
f 28/71/38 29/83/42 42/47/14 41/59/13
f 29/83/42 14/80/39 43/33/29 42/47/14
f 172/86/42 171/90/43 28/71/38 41/59/13 44/34/30
f 31/27/24 30/77/19 46/91/26 45/28/25
f 30/77/19 13/17/17 47/21/21 46/91/26
f 168/92/44 164/18/18 13/17/17 14/80/39
f 169/87/42 168/92/44 14/80/39 40/89/30 39/88/29
f 21/50/24 26/93/19 50/94/26 49/95/25
f 26/93/19 20/96/19 51/97/21 50/94/26
f 20/96/19 16/51/24 52/98/20 51/97/21
f 16/51/24 21/50/24 49/95/25 52/98/20
f 24/54/38 25/99/42 54/67/14 53/69/13
f 25/99/42 19/100/42 55/61/29 54/67/14
f 19/100/42 17/55/38 56/62/30 55/61/29
f 17/55/38 24/54/38 53/69/13 56/62/30
f 25/99/42 22/49/33 58/101/14 57/102/13
f 22/49/33 18/52/33 59/103/29 58/101/14
f 18/52/33 19/100/42 60/104/30 59/103/29
f 19/100/42 25/99/42 57/102/13 60/104/30
f 26/93/19 23/53/37 62/105/26 61/106/25
f 23/53/37 15/56/37 63/107/21 62/105/26
f 15/56/37 20/96/19 64/108/20 63/107/21
f 20/96/19 26/93/19 61/106/25 64/108/20
f 10/2/2 2/11/11 66/109/26 65/110/25
f 2/11/11 23/53/37 67/73/21 66/109/26
f 23/53/37 26/93/19 68/74/20 67/73/21
f 26/93/19 10/2/2 65/110/25 68/74/20
f 12/8/8 8/5/5 70/14/14 69/13/13
f 8/5/5 22/49/33 71/111/29 70/14/14
f 22/49/33 25/99/42 72/112/30 71/111/29
f 25/99/42 12/8/8 69/13/13 72/112/30
f 6/9/9 12/8/8 74/113/14 73/114/13
f 12/8/8 25/99/42 75/115/29 74/113/14
f 25/99/42 24/54/38 76/116/30 75/115/29
f 24/54/38 6/9/9 73/114/13 76/116/30
f 4/3/3 10/2/2 78/117/26 77/118/25
f 10/2/2 26/93/19 79/119/21 78/117/26
f 26/93/19 21/50/24 80/120/20 79/119/21
f 21/50/24 4/3/3 77/118/25 80/120/20
f 16/51/24 20/96/19 82/29/26 81/40/25
f 20/96/19 30/77/19 83/30/21 82/29/26
f 30/77/19 31/27/24 84/39/20 83/30/21
f 31/27/24 16/51/24 81/40/25 84/39/20
f 17/55/38 19/100/42 86/121/14 85/122/13
f 19/100/42 29/83/42 87/123/29 86/121/14
f 29/83/42 28/71/38 88/124/30 87/123/29
f 28/71/38 17/55/38 85/122/13 88/124/30
f 19/100/42 18/52/33 90/125/14 89/126/13
f 18/52/33 32/37/33 91/127/29 90/125/14
f 32/37/33 29/83/42 92/128/30 91/127/29
f 29/83/42 19/100/42 89/126/13 92/128/30
f 20/96/19 15/56/37 94/57/26 93/65/25
f 15/56/37 27/72/37 95/43/21 94/57/26
f 27/72/37 30/77/19 96/44/20 95/43/21
f 30/77/19 20/96/19 93/65/25 96/44/20
f 98/129/35 97/130/28 100/131/27 99/132/36
f 102/133/16 101/134/15 104/135/32 103/136/31
f 106/137/16 105/138/15 108/139/32 107/140/31
f 110/141/35 109/142/28 112/143/27 111/144/36
f 114/145/35 113/146/28 116/147/27 115/148/36
f 118/149/16 117/150/15 120/151/32 119/152/31
f 122/153/16 121/154/15 124/155/32 123/156/31
f 126/157/35 125/158/28 128/159/27 127/160/36
f 130/161/35 129/162/28 132/163/27 131/164/36
f 134/165/16 133/166/15 136/167/32 135/168/31
f 138/169/16 137/170/15 140/171/32 139/172/31
f 142/173/35 141/174/28 144/175/27 143/176/36
f 146/177/35 145/178/28 148/179/27 147/180/36
f 150/181/16 149/182/15 152/183/32 151/184/31
f 154/185/16 153/186/15 156/187/32 155/188/31
f 158/189/35 157/190/28 160/191/27 159/192/36
f 83/30/21 84/39/20 147/42/36 148/31/27
f 72/112/30 69/13/13 134/16/16 135/193/31
f 70/14/14 71/111/29 136/194/32 133/15/15
f 57/102/13 58/101/14 121/195/15 122/196/16
f 71/111/29 72/112/30 135/193/31 136/194/32
f 60/104/30 57/102/13 122/196/16 123/197/31
f 58/101/14 59/103/29 124/198/32 121/195/15
f 45/28/25 46/91/26 109/199/28 110/200/35
f 59/103/29 60/104/30 123/197/31 124/198/32
f 48/20/20 45/28/25 110/200/35 111/201/36
f 85/122/13 86/121/14 149/202/15 150/203/16
f 46/91/26 47/21/21 112/204/27 109/199/28
f 33/79/25 34/78/26 97/205/28 98/206/35
f 88/124/30 85/122/13 150/203/16 151/207/31
f 47/21/21 48/20/20 111/201/36 112/204/27
f 36/24/20 33/79/25 98/206/35 99/208/36
f 86/121/14 87/123/29 152/209/32 149/202/15
f 73/114/13 74/113/14 137/210/15 138/211/16
f 34/78/26 35/25/21 100/212/27 97/205/28
f 87/123/29 88/124/30 151/207/31 152/209/32
f 76/116/30 73/114/13 138/211/16 139/213/31
f 35/25/21 36/24/20 99/208/36 100/212/27
f 74/113/14 75/115/29 140/214/32 137/210/15
f 61/106/25 62/105/26 125/215/28 126/216/35
f 75/115/29 76/116/30 139/213/31 140/214/32
f 64/108/20 61/106/25 126/216/35 127/217/36
f 62/105/26 63/107/21 128/218/27 125/215/28
f 49/95/25 50/94/26 113/219/28 114/220/35
f 63/107/21 64/108/20 127/217/36 128/218/27
f 52/98/20 49/95/25 114/220/35 115/221/36
f 89/126/13 90/125/14 153/222/15 154/223/16
f 50/94/26 51/97/21 116/224/27 113/219/28
f 37/85/13 38/84/14 101/225/15 102/226/16
f 92/128/30 89/126/13 154/223/16 155/227/31
f 51/97/21 52/98/20 115/221/36 116/224/27
f 40/89/30 37/85/13 102/226/16 103/228/31
f 90/125/14 91/127/29 156/229/32 153/222/15
f 77/118/25 78/117/26 141/230/28 142/231/35
f 38/84/14 39/88/29 104/232/32 101/225/15
f 91/127/29 92/128/30 155/227/31 156/229/32
f 80/120/20 77/118/25 142/231/35 143/233/36
f 39/88/29 40/89/30 103/228/31 104/232/32
f 78/117/26 79/119/21 144/234/27 141/230/28
f 65/110/25 66/109/26 129/235/28 130/236/35
f 79/119/21 80/120/20 143/233/36 144/234/27
f 68/74/20 65/110/25 130/236/35 131/75/36
f 66/109/26 67/73/21 132/76/27 129/235/28
f 53/69/13 54/67/14 117/68/15 118/70/16
f 161/82/41 162/23/22 163/22/19
f 164/18/18 165/26/23 166/19/19
f 167/38/34 168/92/44 169/87/42
f 170/81/40 171/90/43 172/86/42
f 164/18/18 168/92/44 167/38/34 165/26/23
f 170/81/40 162/23/22 161/82/41 171/90/43
f 27/72/37 28/71/38 171/90/43 161/82/41
